<svg width="21" height="14" viewBox="0 0 21 14" fill="none" xmlns="http://www.w3.org/2000/svg">
<path d="M0 0H21V9C21 11.7614 18.7614 14 16 14H5C2.23858 14 0 11.7614 0 9V0Z" fill="#DAA520"/>
<path d="M10.1452 11.552C10.3398 11.7481 10.6564 11.7494 10.8523 11.5549L14.0459 8.38615C14.2418 8.1917 14.243 7.87512 14.0484 7.67905C13.8539 7.48298 13.5373 7.48167 13.3413 7.67612L10.5026 10.4928L7.68453 7.6527C7.48998 7.45663 7.1734 7.45531 6.97743 7.64977C6.78146 7.84422 6.78031 8.1608 6.97486 8.35687L10.1452 11.552ZM10.0306 2.79793L10.0001 11.1978L11.0001 11.202L11.0306 2.80207L10.0306 2.79793Z" fill="white"/>
</svg>
