<svg width="18" height="20" viewBox="0 0 18 20" fill="none" xmlns="http://www.w3.org/2000/svg">
<path d="M7.80853 0C7.29234 0 6.79917 0.204313 6.43375 0.570312L6.00474 1H1.01264C0.880337 0.998126 0.748982 1.02261 0.626208 1.07202C0.503435 1.12143 0.39169 1.1948 0.29747 1.28784C0.203249 1.38088 0.128431 1.49176 0.0773643 1.61401C0.0262974 1.73627 0 1.86747 0 2C0 2.13253 0.0262974 2.26373 0.0773643 2.38599C0.128431 2.50824 0.203249 2.61912 0.29747 2.71216C0.39169 2.8052 0.503435 2.87857 0.626208 2.92798C0.748982 2.97739 0.880337 3.00187 1.01264 3H16.9874C17.1197 3.00187 17.251 2.97739 17.3738 2.92798C17.4966 2.87857 17.6083 2.8052 17.7025 2.71216C17.7968 2.61912 17.8716 2.50824 17.9226 2.38599C17.9737 2.26373 18 2.13253 18 2C18 1.86747 17.9737 1.73627 17.9226 1.61401C17.8716 1.49176 17.7968 1.38088 17.7025 1.28784C17.6083 1.1948 17.4966 1.12143 17.3738 1.07202C17.251 1.02261 17.1197 0.998126 16.9874 1H11.9953L11.5663 0.570312C11.2018 0.204313 10.7077 0 10.1915 0H7.80853ZM1.3773 5L2.90223 18.2637C3.03402 19.2537 3.88509 20 4.88152 20H13.1165C14.113 20 14.965 19.2549 15.0978 18.2559L16.6227 5H1.3773Z" fill="#DAA520"/>
</svg>
