<svg width="432" height="426" viewBox="0 0 432 426" fill="none" xmlns="http://www.w3.org/2000/svg">
<path d="M17.5573 275.618C9.20082 170.043 97.9379 65.9848 201.983 57.7493C306.028 49.5138 387.141 86.9235 395.497 192.498C403.854 298.072 345.562 345.151 241.517 353.387C137.472 361.622 25.9138 381.192 17.5573 275.618Z" fill="#FBDF6A" fill-opacity="0.21"/>
<path d="M279.458 104.016C278.736 94.894 286.403 85.903 295.393 85.1914C304.383 84.4798 311.391 87.7122 312.113 96.8341C312.835 105.956 307.799 110.024 298.809 110.735C289.819 111.447 280.18 113.138 279.458 104.016Z" fill="#F89945"/>
<path d="M25.0931 71.9412C11.9786 60.6048 10.9545 37.5773 22.7816 23.8952C34.6087 10.2131 48.8477 4.67708 61.9622 16.0135C75.0767 27.3499 73.3132 39.9861 61.4861 53.6682C49.659 67.3503 38.2076 83.2776 25.0931 71.9412Z" fill="#FBDF6A" fill-opacity="0.21"/>
<path d="M408.546 339.125C420.804 351.383 416.188 378.39 399.118 395.461C382.047 412.532 359.387 415.034 351.99 407.959C344.592 400.885 344.944 380.69 362.015 363.619C379.085 346.548 396.288 326.867 408.546 339.125Z" fill="#FBDF6A" fill-opacity="0.21"/>
<path d="M76.7963 277.531C70.1804 283.531 58.6947 283.009 52.8185 276.529C46.9423 270.049 45.2855 262.737 51.9015 256.737C58.5174 250.738 64.6428 252.178 70.519 258.658C76.3952 265.138 83.4123 271.531 76.7963 277.531Z" fill="#FBD246"/>
<path d="M224.828 241.663C224.828 241.663 220.691 254.746 222.459 258.762C224.227 262.777 271.607 294.583 308.468 299.242C309.012 299.306 309.563 299.255 310.087 299.092C310.61 298.929 311.094 298.658 311.508 298.296C314.549 295.636 321.78 288.961 322.788 284.659C324.078 279.198 295.916 285.855 224.828 241.663Z" fill="#F89945"/>
<path d="M235.017 257.671C238.563 261.557 243.634 259.623 246.72 263.261C249.805 266.899 250.39 267.946 254.61 267.183C255.39 267.041 256.082 267.822 256.578 268.248C260.532 271.549 262.731 273.394 268.866 273.962C270.155 273.945 271.409 274.378 272.413 275.187C275.491 277.414 279.268 278.454 283.051 278.115C283.319 278.103 283.586 278.151 283.832 278.257C286.474 279.517 286.722 281.593 289.151 283.368C292.892 286.048 296.35 288.497 300.659 285.462C301.355 285.094 302.158 284.981 302.928 285.143C307.397 285.924 306.776 290.857 312.61 288.692C315.624 287.61 316.546 290.272 318.142 291.514C320.195 289.52 321.782 287.096 322.787 284.415C324.082 278.985 295.836 285.604 224.538 241.663C223.456 245.15 222.615 248.708 222.02 252.311C224.219 256.961 231.967 254.37 235.017 257.671Z" fill="#D77124"/>
<path opacity="0.55" d="M281.594 286.276C278.106 281.37 273.557 274.295 273.162 267.931C256.992 261.012 241.336 252.974 226.309 243.879C226.309 243.879 223.019 254.545 224.727 257.94C226.094 260.642 255.291 279.61 284.057 289.299C283.14 288.321 282.349 287.325 281.594 286.276Z" fill="#CD4200"/>
<path d="M278.11 237.355C278.11 237.355 235.846 223.178 231.923 226.723C228 230.267 225.093 239.358 227.108 243.203C229.123 247.049 269.764 265.922 276.202 269.466C300.882 283.075 320.481 281.197 321.586 281.534C322.692 281.87 333.32 273.79 329.914 263.99C326.74 254.793 285.314 241.236 278.11 237.355Z" fill="#BE5B2A"/>
<path d="M279.981 261.377C276.497 256.619 273.733 251.378 271.776 245.821C270.81 242.063 270.137 238.236 269.765 234.375C260.867 231.593 246.949 227.43 238.566 226.154C234.313 234.534 233.957 242.844 239.136 250.959C252.092 258.259 271.349 267.703 276.03 269.138C278.112 269.776 282.882 271.069 288.488 272.681C285.387 269.119 282.544 265.342 279.981 261.377Z" fill="#AE4D25"/>
<path d="M261.3 239.71C267.922 242.581 272.945 247.117 278.821 251.192C283.731 254.375 288.389 257.93 292.755 261.823C296.181 265.101 301.915 275.307 306.956 272.047C310.737 269.567 315.299 269.779 319.559 269.194C323.183 268.634 326.877 268.706 330.476 269.407C330.728 267.564 330.539 265.688 329.926 263.932C326.766 254.789 285.548 241.234 278.359 237.354C278.359 237.354 236.289 223.179 232.384 226.723C231.348 227.713 230.468 228.854 229.774 230.107C240.887 231.383 250.934 235.139 261.3 239.71Z" fill="#953E25"/>
<path d="M225.364 241.669C228.516 241.62 231.666 241.872 234.769 242.423C238.058 243.229 245.271 249.926 254.218 252.345C263.164 254.764 260.317 259.567 270.801 262.074C281.286 264.581 282.205 269.472 285.777 269.893C289.348 270.314 298.046 275.24 299.779 276.66C301.512 278.08 315.143 276.397 318.538 278.956C321.932 281.516 327.113 279.938 327.236 281.866C327.36 283.795 327.236 288.142 321.508 286.845C315.78 285.548 312.42 286.302 310.582 284.198C308.743 282.094 292.76 283.269 292.106 280.446C291.452 277.624 285.9 275.363 280.861 273.837C275.823 272.312 274.726 269.946 268.485 268.578C262.244 267.211 255.296 261.11 252.255 261.198C249.214 261.285 240.94 258.708 239.773 256.096C238.606 253.484 232.471 249.347 230.314 249.487C228.157 249.628 225.063 242.984 225.364 241.669Z" fill="#7BB027"/>
<path d="M231.845 240.185C231.845 240.043 231.845 239.883 232.04 240.078C232.619 239.942 233.215 239.894 233.809 239.936V239.776C234.534 239.901 235.348 239.776 236.037 239.776C236.03 239.735 236.03 239.693 236.037 239.652C237.508 240.209 239.008 240.684 240.531 241.074C241.893 241.802 243.29 243.775 241.486 244.806C240.655 245.268 239.717 244.948 239.363 246.086C239.288 246.523 239.308 246.972 239.421 247.401C239.534 247.831 239.737 248.231 240.018 248.574C241.712 249.915 243.637 250.933 245.696 251.578C247.271 252.129 250.49 253.355 251.534 251.347C251.958 250.831 251.215 250.031 251.392 249.356C251.527 248.984 251.765 248.659 252.079 248.419C252.393 248.18 252.769 248.036 253.161 248.005C254.034 248.355 254.951 248.582 255.886 248.681C256.97 249.229 258.109 249.664 259.282 249.978C260.246 250.465 261.18 251.011 262.077 251.613C262.537 252.2 262.979 252.928 263.475 253.391C263.97 253.853 264.111 255.47 263.262 256.181C262.749 256.607 261.989 256.323 261.493 256.43C260.879 256.615 260.286 256.865 259.724 257.176C259.649 257.478 259.639 257.793 259.694 258.099C259.749 258.406 259.868 258.697 260.043 258.954C260.202 259.114 260.308 259.131 260.432 259.433C262.749 260.233 264.624 262.171 267.013 262.722C267.143 262.858 267.305 262.96 267.484 263.019C267.663 263.078 267.853 263.092 268.039 263.059C268.552 263.384 269.113 263.624 269.701 263.77V263.592C269.757 263.675 269.838 263.737 269.931 263.77C269.949 263.74 269.958 263.707 269.958 263.672C269.958 263.638 269.949 263.604 269.931 263.575C271.7 263.575 269.383 261.193 269.171 260.606C268.41 258.58 270.94 258.829 272.231 259.114C275.486 259.984 279.962 261.833 281.784 264.961C281.632 265.56 281.258 266.078 280.738 266.409C280.219 266.739 279.592 266.857 278.989 266.738C278.617 266.916 277.839 267.058 277.361 267.307C277.361 267.307 277.184 267.698 277.114 267.805C277.276 268.077 277.472 268.328 277.697 268.551C278.104 269.315 279.466 269.635 280.015 269.902C280.117 269.974 280.231 270.028 280.351 270.062C280.642 270.266 280.957 270.433 281.288 270.56V270.382C281.748 270.613 282.704 270.737 283.057 270.062C284.473 269.28 283.305 266.205 285.941 267.289C287.445 267.894 289.107 269.582 290.717 268.622C291.885 268.8 292.769 268.747 293.618 269.6C294.149 272.195 291.991 272.301 290.08 273.154L289.886 273.261C289.886 273.474 289.727 273.688 289.656 273.901C289.585 274.114 289.744 274.132 289.762 274.256C289.78 274.211 289.78 274.16 289.762 274.114C289.957 274.861 291.531 276.069 292.132 275.892C293.53 277.509 296.307 275.376 297.758 274.63C298.712 274.053 299.734 273.599 300.8 273.279C301.986 273.012 302.676 273.652 303.666 273.599C304.863 274.443 305.756 275.652 306.214 277.047C306.55 278.202 306.214 280.068 307.735 280.388C311.609 283.125 316.262 276.834 320.242 276.709C320.502 276.68 320.766 276.702 321.018 276.776C321.269 276.849 321.504 276.972 321.708 277.138C321.912 277.303 322.081 277.507 322.206 277.739C322.331 277.97 322.409 278.224 322.435 278.486C322.577 279.5 321.834 280.37 321.958 281.348C321.997 281.587 322.085 281.815 322.216 282.019C322.347 282.223 322.518 282.397 322.718 282.532C322.919 282.667 323.145 282.759 323.382 282.803C323.619 282.847 323.863 282.842 324.098 282.788C325.213 282.557 325.566 281.401 326.469 280.921C326.983 280.622 327.58 280.499 328.17 280.57C328.76 280.642 329.31 280.903 329.739 281.316C330.168 281.729 330.452 282.271 330.548 282.86C330.644 283.449 330.547 284.054 330.272 284.583C329.572 285.547 328.678 286.353 327.648 286.947C326.618 287.541 325.475 287.91 324.293 288.031C323.062 288.911 321.574 289.355 320.065 289.293C319.669 289.225 319.294 289.065 318.97 288.827C318.645 288.59 318.38 288.279 318.195 287.921C318.01 287.563 317.91 287.167 317.903 286.763C317.896 286.36 317.982 285.96 318.154 285.596C318.614 284.263 319.835 282.45 318.72 281.295C318.442 281.096 318.127 280.955 317.794 280.879C317.46 280.802 317.116 280.793 316.779 280.851C316.442 280.908 316.12 281.032 315.831 281.215C315.542 281.398 315.291 281.637 315.094 281.917C314.247 282.784 313.516 283.758 312.918 284.814C312.251 285.704 311.437 286.474 310.512 287.089C310.247 287.089 310.229 287.089 310.123 287.213C306.992 287.213 305.046 284.067 305.435 280.85C304.94 279.553 304.303 276.745 302.446 279.073C301.908 279.895 301.497 280.794 301.225 281.739C300.72 282.524 300.271 283.343 299.881 284.192C299.068 284.761 298.115 285.095 297.126 285.158C296.137 285.22 295.15 285.009 294.273 284.547C292.026 283.531 290.077 281.952 288.612 279.962C287.374 278.451 286.295 277.296 287.675 275.501C288.064 274.967 289.09 274.079 289.072 273.297C289.036 272.85 288.834 272.434 288.506 272.131C288.178 271.828 287.749 271.66 287.303 271.661C285.163 270.613 284.384 273.439 283.27 274.736C282.512 275.503 281.534 276.01 280.473 276.185C279.412 276.361 278.323 276.196 277.361 275.714C275.858 275.163 271.276 273.101 272.355 270.986C272.815 270.044 274.248 269.991 274.814 269.209C275.07 268.696 275.149 268.113 275.041 267.551C274.932 266.988 274.641 266.477 274.212 266.098C273.646 265.441 271.081 263.895 271.081 265.619C270.851 266.063 271.081 266.827 270.957 267.396C270.738 267.976 270.555 268.57 270.409 269.173C269.648 269.493 269.206 270.417 268.64 270.844C267.927 271.39 267.074 271.723 266.181 271.804C265.981 271.779 265.779 271.779 265.58 271.804C263.003 270.734 260.708 269.08 258.875 266.969C258.227 266.253 257.717 265.421 257.372 264.517C257.142 263.361 258.097 262.544 258.061 261.406C258.061 259.469 254.683 256.839 253.993 259.629C253.657 261.051 254.417 262.046 253.71 263.486C253.25 264.392 252.719 265.263 251.587 265.263V265.37C246.138 264.605 251.711 258.563 248.562 256.323C247.554 255.612 244.9 254.759 243.75 255.434C241.981 256.465 244.157 258.598 241.981 259.487L241.557 259.345C239.239 258.865 236.25 256.501 236.639 253.746C236.798 252.68 238.019 251.969 238.036 250.956C237.834 249.984 237.263 249.13 236.444 248.574C236.199 248.262 235.872 248.025 235.5 247.89C235.128 247.755 234.726 247.727 234.339 247.81C233.154 248.005 233.136 248.681 233.189 249.765C233.331 252.342 233.048 253.657 230.66 254.972C229.648 254.843 228.673 254.509 227.794 253.99C226.916 253.47 226.151 252.777 225.547 251.951C224.734 250.529 225.547 248.112 225.547 246.619C225.353 245.481 222.947 244.593 222.009 244.379C218.064 242.016 219.727 235.368 224.504 237.732C226.161 238.879 227.505 240.425 228.413 242.229C229.298 243.473 231.509 245.784 232.906 243.686C234.021 242.051 231.81 241.358 231.916 239.865C232.022 239.883 231.597 240.22 231.845 240.185Z" fill="#9FCC29"/>
<path d="M249.059 219.925C249.059 219.925 233.538 217.979 226.451 222.484L226.912 225.341C226.912 225.341 251.859 229.968 267.893 240.205C283.928 250.441 300.53 263.377 304.977 268.25C304.977 268.25 323.687 259.486 339.297 267.567L340.555 264.92C337.802 260.721 334.079 257.23 329.694 254.736C322.908 251.09 273.475 236.436 249.059 219.925Z" fill="#FFCF08"/>
<path d="M312.064 263.296C308.521 263.884 305.615 264.526 305.615 264.526C289.669 251.482 277.869 241.36 265.023 235.266C252.696 229.349 239.761 224.808 226.451 221.722L226.912 224.627C226.912 224.627 251.859 229.331 267.893 239.738C283.928 250.145 300.53 263.296 304.977 268.25C304.977 268.25 323.687 259.34 339.297 267.555L340.555 264.864C327.39 259.198 316.724 262.494 312.064 263.296Z" fill="#EFA708"/>
<path d="M333.771 248.284C334.259 248.851 334.617 249.514 334.82 250.23C335.024 250.945 335.069 251.695 334.952 252.429C334.308 254.44 331.91 258.003 330.586 258.267C327.723 258.814 276.263 241.264 239.904 219.463C239.904 219.463 238.955 218.246 241.693 210.644C241.693 210.644 250.926 219.922 291.686 237.102C324.019 250.63 333.771 248.284 333.771 248.284Z" fill="#E72124"/>
<g style="mix-blend-mode:multiply" opacity="0.55">
<path d="M286.666 239.887C294.975 243.367 303.459 246.416 312.085 249.023C319.69 251.58 326.266 253.573 333.871 252.392C333.956 251.679 333.895 250.957 333.69 250.268C333.486 249.58 333.143 248.94 332.683 248.388C332.683 248.388 323.022 250.663 291.044 237.1C250.664 219.992 241.517 210.644 241.517 210.644C240.753 212.643 240.16 214.702 239.745 216.8C253.589 227.435 270.996 232.744 286.666 239.887Z" fill="#C42124"/>
</g>
<path d="M304.339 196.827C295.724 192.917 286.64 190.133 277.312 188.545C271.046 187.297 264.621 187.05 258.277 187.815C252.538 188.609 247.194 191.189 243.007 195.189C241.208 197.21 239.909 199.625 239.215 202.239C238.521 204.853 238.451 207.593 239.011 210.239C240.795 219.519 319.841 253.094 334.469 250.369C334.469 250.369 340.66 247.554 341.605 238.755C342.051 234.142 339.821 228.603 337.573 224.684C333.846 218.552 329.063 213.125 323.445 208.654C317.616 203.901 311.194 199.926 304.339 196.827Z" fill="#F89945"/>
<path d="M320.598 237.388C307.974 235.629 297.602 229.455 286.14 224.388C274.356 219.111 261.768 214.784 251.235 207.255C246.568 203.895 243.403 200.605 242.688 196.243C241.002 198.229 239.795 200.565 239.157 203.075C238.52 205.585 238.467 208.205 239.004 210.738C240.793 219.903 320.026 253.062 334.689 250.37C336.651 249.266 338.311 247.709 339.526 245.834C340.741 243.959 341.474 241.821 341.662 239.605C334.724 240.361 328.108 238.496 320.598 237.388Z" fill="#E8761F"/>
<g style="mix-blend-mode:screen" opacity="0.32">
<path d="M304.878 201.437C302.684 199.328 295.916 195.13 293.389 198.806C291.213 201.979 297.188 205.771 299.217 206.893C301.522 208.19 305.487 209.486 306.925 207.087C308.013 205.249 306.704 203.159 304.878 201.437Z" fill="#FDE5C1"/>
</g>
<g style="mix-blend-mode:screen" opacity="0.32">
<path d="M319.696 217.555C314.345 214.345 307.948 211.753 302.266 213.34C297.595 214.61 299.878 218.208 302.441 220.571C306.429 224.326 311.124 227.229 316.245 229.107C319.627 230.253 325.745 232.352 327.156 227.696C327.297 226.985 327.296 226.252 327.156 225.541C327.015 224.83 326.737 224.154 326.337 223.552C324.499 221.164 322.249 219.133 319.696 217.555Z" fill="#FDE5C1"/>
</g>
<path d="M279.626 198.943C279.626 199.878 278.442 200.674 276.914 200.674C275.386 200.674 274.12 200.016 274.087 199.082C274.054 198.147 275.287 197.351 276.815 197.351C278.344 197.351 279.609 198.026 279.626 198.943Z" fill="#FBD198"/>
<path d="M296.243 221.108C296.243 222.038 294.803 222.83 292.969 222.83C291.135 222.83 289.616 222.159 289.596 221.229C289.577 220.299 291.036 219.507 292.87 219.507C294.704 219.507 296.203 220.144 296.243 221.108Z" fill="#FBD198"/>
<path d="M315.075 227.746C315.075 228.681 313.892 229.477 312.347 229.477C310.803 229.477 309.57 228.802 309.537 227.885C309.504 226.967 310.737 226.154 312.265 226.154C313.794 226.154 315.059 226.829 315.075 227.746Z" fill="#FBD198"/>
<path d="M264.116 197.835C264.116 198.77 262.933 199.566 261.405 199.566C259.876 199.566 258.611 198.891 258.578 197.974C258.545 197.056 259.778 196.243 261.306 196.243C262.834 196.243 264.1 196.849 264.116 197.835Z" fill="#FBD198"/>
<path d="M336.124 229.962C336.124 230.897 334.704 231.693 332.85 231.693C330.996 231.693 329.517 231.018 329.478 230.1C329.438 229.183 330.917 228.369 332.751 228.369C334.585 228.369 336.025 229.062 336.124 229.962Z" fill="#FBD198"/>
<path d="M303.579 219.251C302.882 219.905 301.488 219.251 300.501 217.922C299.515 216.593 299.26 214.879 299.974 214.225C300.688 213.57 302.066 214.225 303.069 215.553C304.073 216.882 304.294 218.615 303.579 219.251Z" fill="#FBD198"/>
<path d="M322.802 221.808C322.541 222.666 320.794 223.055 319.047 222.698C317.3 222.342 315.955 221.387 316.216 220.529C316.477 219.671 318.224 219.282 319.971 219.639C321.718 219.995 323.043 220.966 322.802 221.808Z" fill="#FBD198"/>
<path d="M273.706 211.548C272.987 212.07 271.6 211.548 270.59 210.488C269.58 209.429 269.357 208.047 270.076 207.525C270.795 207.003 272.182 207.525 273.175 208.6C274.168 209.675 274.357 211.026 273.706 211.548Z" fill="#FBD198"/>
<path d="M288.119 212.684C287.446 213.22 286.063 212.492 285.045 211.057C284.026 209.622 283.753 208.033 284.426 207.497C285.099 206.961 286.482 207.689 287.501 209.124C288.52 210.559 288.793 212.148 288.119 212.684Z" fill="#FBD198"/>
<path d="M257.268 204.777C256.682 205.415 255.081 205.096 253.655 204.051C252.23 203.005 251.566 201.64 252.132 201.002C252.698 200.364 254.319 200.683 255.745 201.729C257.17 202.775 257.834 204.139 257.268 204.777Z" fill="#FBD198"/>
<path d="M314.637 211.572C313.908 212.042 312.523 211.572 311.538 210.382C310.554 209.192 310.353 207.971 311.082 207.501C311.812 207.031 313.197 207.501 314.182 208.691C315.166 209.881 315.367 211.103 314.637 211.572Z" fill="#FBD198"/>
<path d="M331.266 222.606C330.537 223.193 329.151 222.606 328.167 221.118C327.183 219.63 326.964 218.103 327.693 217.516C328.422 216.929 329.826 217.516 330.792 219.004C331.758 220.491 331.995 222.018 331.266 222.606Z" fill="#FBD198"/>
<path d="M288.05 198.235C287.321 198.82 285.935 198.235 284.951 196.752C283.967 195.27 283.766 193.729 284.495 193.144C285.224 192.558 286.61 193.144 287.594 194.626C288.579 196.109 288.779 197.65 288.05 198.235Z" fill="#FBD198"/>
<g style="mix-blend-mode:multiply" opacity="0.35">
<path d="M341.572 237.335C328.132 237.65 313.014 233.013 301.216 228.761C292.684 225.699 283.366 222.374 276.441 216.389C269.515 210.405 266.392 202.566 271.497 194.447C272.829 192.395 274.672 190.709 276.851 189.547C270.735 188.394 264.472 188.181 258.288 188.917C252.545 189.697 247.199 192.232 243.009 196.161C241.209 198.147 239.909 200.52 239.215 203.088C238.52 205.656 238.451 208.348 239.011 210.947C240.796 220.064 319.886 253.048 334.522 250.371C334.522 250.371 340.716 247.606 341.662 238.962C341.668 238.418 341.638 237.875 341.572 237.335Z" fill="#D48745"/>
</g>
<g style="mix-blend-mode:multiply" opacity="0.32">
<path d="M290.092 226.481L285.844 224.515C274.378 219.32 262.174 214.811 251.806 207.596C247.18 204.385 244.03 201.283 243.148 197.351C241.624 199.069 240.563 201.149 240.066 203.393C239.568 205.638 239.65 207.972 240.304 210.175C241.546 214.847 266.584 227.473 290.704 237.232C290.011 233.693 289.805 230.076 290.092 226.481Z" fill="#BA773D"/>
</g>
<path d="M209.834 288.914C209.834 288.914 169.024 255.089 147.407 264.329C125.789 273.568 117.513 277.307 112.679 288.683C109.718 295.626 107.863 318.948 106.294 326.514C104.724 334.08 99.1593 350.637 122.81 347.681C146.461 344.726 186.254 289.181 209.834 288.914Z" fill="#F89945"/>
<g style="mix-blend-mode:multiply" opacity="0.35">
<path d="M167.055 263.838H165.986H165.843C165.701 264.222 165.432 264.545 165.082 264.753C164.732 264.962 164.321 265.044 163.918 264.985C157.091 264.286 152.51 265.864 145.969 268.176C142.796 269.288 137.574 272.335 134.08 271.492C133.946 271.438 133.82 271.366 133.706 271.277C132.921 271.492 132.137 271.69 131.388 271.959C125.595 273.912 124.259 276.727 121.656 282.122C119.874 285.851 116.095 294.671 111.621 297.108C111.886 299.672 112.279 302.221 112.798 304.745C113.432 307.871 113.552 311.08 113.154 314.245C112.584 317.669 111.069 321.021 107.254 320.896C107.094 322.007 106.951 323.011 106.808 323.925C108.28 326.517 109.208 329.384 109.536 332.351C109.678 335.559 108.68 338.75 109.001 341.654C111.175 342.998 111.728 345.006 112.281 347.408C115.765 348.144 119.354 348.229 122.868 347.659C146.468 344.666 186.27 288.755 209.834 288.504C209.834 288.45 187.446 269.736 167.055 263.838Z" fill="#E09945"/>
</g>
<path d="M126.333 284.729C125.94 285.496 125.708 286.338 125.654 287.202C125.599 288.065 125.723 288.931 126.016 289.743C126.31 290.555 126.767 291.295 127.359 291.916C127.95 292.537 128.663 293.024 129.45 293.347C130.943 293.796 132.52 293.87 134.047 293.563C141.233 292.539 147.661 288.697 154.107 285.321C160.553 281.946 167.58 278.893 174.783 279.611C176.756 279.809 178.693 280.294 180.683 280.33C182.676 280.494 184.651 279.848 186.178 278.534C187.664 276.694 188.501 274.399 188.556 272.016C188.891 269.521 189.102 266.63 187.394 264.834C186.337 263.739 184.769 263.29 183.678 262.231C182.573 260.821 181.688 259.247 181.053 257.562C180.054 255.82 178.547 254.439 176.741 253.612C174.935 252.785 172.921 252.552 170.979 252.948C170.169 253.128 169.218 253.72 169.394 254.546C169.57 255.372 170.68 255.444 171.49 255.282C172.3 255.121 173.251 254.923 173.797 255.605C174.343 256.288 173.797 257.401 172.934 257.616C172.118 257.817 171.262 257.773 170.469 257.491C165.674 256.357 160.698 256.272 155.868 257.239C155.041 257.349 154.25 257.656 153.561 258.137C153.225 258.39 152.974 258.745 152.845 259.15C152.715 259.556 152.713 259.993 152.839 260.399C153.438 261.818 155.868 261.854 156.097 263.38C156.123 263.761 156.03 264.14 155.831 264.463C155.631 264.786 155.336 265.035 154.988 265.175C154.289 265.434 153.544 265.532 152.804 265.463L146.252 265.337C145.161 264.5 143.895 263.929 142.554 263.667C141.88 263.554 141.189 263.669 140.585 263.993C139.981 264.317 139.498 264.833 139.207 265.463C138.697 266.971 139.718 268.91 138.697 270.113C138.216 270.519 137.612 270.741 136.988 270.741C136.365 270.741 135.76 270.519 135.28 270.113C134.325 269.292 133.312 268.542 132.251 267.869C131.316 267.501 130.287 267.464 129.329 267.763C128.371 268.063 127.539 268.682 126.967 269.521C126.428 270.369 126.12 271.348 126.074 272.357C126.027 273.367 126.244 274.37 126.703 275.266C127.496 276.918 129.01 278.373 128.922 280.204C128.834 282.035 127.249 283.149 126.333 284.729Z" fill="#9FCC29"/>
<path d="M181.6 262.02C180.597 260.665 180.016 259.042 179.119 257.615C178.72 256.868 178.141 256.234 177.437 255.773C176.733 255.312 175.925 255.037 175.089 254.975C175.365 255.168 175.597 255.418 175.771 255.708C175.945 255.998 176.056 256.322 176.098 256.659C176.14 256.996 176.11 257.338 176.012 257.662C175.914 257.987 175.75 258.287 175.529 258.542C175.382 258.709 175.217 258.859 175.036 258.988C175.471 259.546 175.854 260.143 176.18 260.772C176.884 262.27 177.5 263.804 178.081 265.337C178.943 267.62 180.175 270.224 179.154 272.632C178.133 275.04 174.966 274.166 175.019 272.222C174.956 272.12 174.903 272.013 174.861 271.901C174.216 268.973 173.13 266.164 171.64 263.572C170.549 261.788 169.106 260.415 167.927 258.792C165.259 258.05 162.475 257.838 159.727 258.168C159.041 258.168 158.197 258.507 157.968 259.202C157.739 259.898 158.478 260.504 159.147 260.754C159.847 260.885 160.513 261.165 161.1 261.574C161.287 261.822 161.421 262.107 161.492 262.411C161.563 262.715 161.569 263.031 161.511 263.337C161.453 263.644 161.331 263.935 161.154 264.19C160.977 264.446 160.749 264.661 160.484 264.82C159.376 265.425 158.1 265.638 156.859 265.427C156.092 265.364 155.321 265.364 154.554 265.427C154.311 265.485 154.064 265.527 153.815 265.551C153.585 265.598 153.361 265.67 153.146 265.765C152.097 266.39 151.177 267.213 150.436 268.191C150.059 268.678 149.579 269.072 149.03 269.344C148.482 269.615 147.88 269.758 147.269 269.76C145.509 269.529 143.996 267.21 142.289 267.977C140.582 268.744 141.233 271.918 139.703 273.327C139.225 273.654 138.666 273.837 138.09 273.856C137.514 273.875 136.945 273.729 136.447 273.434C135.409 272.953 134.512 272.168 133.438 271.651C132.923 271.385 132.34 271.286 131.768 271.365C131.196 271.445 130.661 271.7 130.236 272.097C129.886 272.689 129.729 273.378 129.785 274.066C129.842 274.754 130.11 275.406 130.552 275.931C131.468 276.978 132.077 278.263 132.312 279.641C132.312 282.334 128.793 283.672 127.983 286.24C127.752 287.309 127.839 288.424 128.234 289.444C128.629 290.463 129.313 291.34 130.2 291.965C131.169 292.735 132.257 293.338 133.421 293.748L134.107 293.659C141.286 292.643 147.709 288.826 154.149 285.473C160.59 282.12 167.611 279.088 174.808 279.802C176.779 279.998 178.714 280.479 180.703 280.515C182.693 280.678 184.667 280.037 186.193 278.731C187.677 276.904 188.514 274.624 188.568 272.257C188.776 270.985 188.835 269.692 188.744 268.405C186.756 265.926 183.5 264.553 181.6 262.02Z" fill="#73A624"/>
<path d="M118.994 298.098C118.994 298.098 121.652 283.754 121.971 281.563C121.971 281.563 130.99 287.52 139.957 286.167L148.905 295.993C148.905 295.993 130.051 304.295 118.994 298.098Z" fill="#FFCF08"/>
<g style="mix-blend-mode:multiply" opacity="0.35">
<path d="M139.498 287.102L138.596 287.206C137.841 289.13 136.606 290.842 135 292.19C133.394 293.538 131.468 294.479 129.394 294.928C127.879 295.155 126.329 294.988 124.903 294.444C123.476 293.901 122.224 293.001 121.275 291.836C120.661 295.225 120.102 298.265 120.102 298.265C130.332 304.013 147.797 296.308 147.797 296.308L139.498 287.102Z" fill="#E6B970"/>
</g>
<path d="M123.054 282.67C122.735 285.067 120.102 299.912 120.102 299.912C120.897 300.377 120.827 300.073 121.693 300.395C121.41 295.799 124.662 285.729 124.662 285.729C135.601 288.734 141.398 288.823 139.772 286.874C133.958 286.763 128.243 285.327 123.054 282.67Z" fill="#EFA708"/>
<path d="M130.092 300.031C130.11 300.152 130.11 300.274 130.092 300.395C136.581 300.003 142.949 298.476 148.905 295.883L145.034 293.749C140.763 294.825 129.534 296.855 130.092 300.031Z" fill="#EFA708"/>
<path d="M140.023 310.398C140.108 307.918 139.919 305.436 139.46 302.997C139.302 301.904 139.126 300.794 138.967 299.684C138.809 298.574 138 298.151 137.086 298.221C136.181 298.409 135.288 298.65 134.412 298.944C132.443 299.367 130.526 298.221 128.714 297.34C125.425 295.737 121.82 294.894 118.162 294.873C116.498 294.77 114.839 295.143 113.379 295.948C112.658 296.373 112.092 297.018 111.763 297.789C111.434 298.559 111.359 299.414 111.55 300.23C112.359 302.803 116.157 303.367 117.107 305.905C117.265 306.328 117.283 306.909 116.879 307.138C116.474 307.367 115.964 307.015 115.595 306.698C113.98 305.211 111.959 304.242 109.791 303.913C108.697 303.764 107.583 303.857 106.529 304.185C105.474 304.514 104.505 305.071 103.689 305.816C102.887 306.585 102.324 307.57 102.068 308.651C101.812 309.733 101.874 310.866 102.246 311.914C102.668 312.937 103.439 313.777 104.421 314.284C105.404 314.791 106.534 314.931 107.61 314.68C108.736 314.363 110.002 313.57 110.952 314.257C111.129 314.442 111.264 314.664 111.347 314.907C111.43 315.149 111.459 315.407 111.432 315.662C111.405 315.917 111.323 316.163 111.192 316.383C111.06 316.603 110.882 316.792 110.67 316.936C110.216 317.206 109.706 317.37 109.179 317.416C108.653 317.462 108.122 317.388 107.628 317.2C106.615 316.841 105.574 316.57 104.515 316.39C103.451 316.323 102.392 316.589 101.485 317.151C100.577 317.713 99.8666 318.543 99.4501 319.526C99.0716 320.522 98.9617 321.6 99.1315 322.652C99.3013 323.704 99.7448 324.692 100.417 325.518C101.113 326.326 101.974 326.974 102.942 327.418C103.91 327.862 104.963 328.091 106.028 328.09C108.097 327.908 110.139 327.489 112.113 326.839C117.564 325.588 123.438 326.61 128.767 324.848C131.827 323.772 134.514 321.838 136.509 319.277C138.505 316.715 139.724 313.634 140.023 310.398Z" fill="#9FCC29"/>
<path d="M113.584 314.772C114.073 316.284 112.745 317.869 111.277 318.415C109.762 318.71 108.215 318.778 106.682 318.616C105.918 318.539 105.149 318.667 104.446 318.985C103.743 319.304 103.13 319.804 102.663 320.437C102.302 321.322 102.283 322.317 102.608 323.216C102.933 324.115 103.579 324.849 104.41 325.265C106.128 326.01 108.048 326.074 109.809 325.447C113.077 324.518 116.082 322.642 119.42 321.986C121.657 321.53 123.963 321.658 126.235 321.366C128.536 321.242 130.705 320.206 132.298 318.47C133.325 317.015 134.013 315.331 134.308 313.551C135.406 308.751 136.211 303.883 136.719 298.977C133.801 300.471 130.533 302.019 127.388 301.127C126.14 300.711 124.961 300.096 123.893 299.305C122.812 298.508 121.638 297.859 120.399 297.374C119.773 297.14 119.108 297.04 118.444 297.081C117.781 297.121 117.132 297.302 116.537 297.611C115.951 297.946 115.489 298.476 115.226 299.117C114.964 299.757 114.914 300.472 115.086 301.145C115.347 301.7 115.724 302.187 116.19 302.568C116.656 302.95 117.199 303.217 117.777 303.349C118.934 303.584 120.069 303.925 121.167 304.369C121.702 304.616 122.154 305.023 122.466 305.539C122.777 306.055 122.933 306.657 122.915 307.266C122.807 307.751 122.58 308.198 122.255 308.562C121.93 308.927 121.519 309.196 121.063 309.343C119.538 309.799 117.904 309.643 116.484 308.906C115.034 308.286 113.689 307.393 112.221 306.829C111.499 306.5 110.72 306.33 109.932 306.33C109.144 306.33 108.364 306.5 107.643 306.829C106.96 307.209 106.445 307.85 106.204 308.617C105.963 309.384 106.015 310.218 106.35 310.946C106.831 311.492 107.418 311.925 108.071 312.217C108.725 312.509 109.43 312.653 110.141 312.64C111.592 312.859 113.147 313.351 113.584 314.772Z" fill="#73A624"/>
<path d="M120.102 323.932C120.099 324.402 120.228 324.863 120.476 325.268C120.724 325.674 121.082 326.008 121.512 326.236C122.372 326.702 123.343 326.949 124.332 326.952C127.112 327.12 129.89 326.591 132.389 325.416C135.475 323.993 137.905 321.54 139.219 318.521C139.858 317.019 140.131 315.398 140.017 313.78C139.903 312.162 139.405 310.59 138.56 309.183C137.68 307.793 136.423 306.655 134.921 305.89C133.419 305.125 131.728 304.761 130.027 304.836C128.782 304.941 127.335 305.552 127.243 306.739C127.152 307.926 128.525 308.729 129.075 309.829C129.251 310.221 129.315 310.65 129.26 311.073C129.206 311.496 129.034 311.898 128.763 312.237C128.482 312.57 128.114 312.827 127.697 312.983C127.279 313.139 126.827 313.189 126.383 313.128C124.881 312.918 123.636 311.382 122.153 311.714C121.581 311.87 121.085 312.213 120.751 312.681C120.416 313.15 120.265 313.715 120.322 314.28C120.482 315.381 120.835 316.449 121.366 317.439C121.901 318.435 122.05 319.578 121.787 320.668C121.475 321.838 120.267 322.711 120.102 323.932Z" fill="#9FCC29"/>
<path d="M137.462 309.089C136.54 308.896 135.672 308.509 134.914 307.955C134.156 307.396 133.244 307.077 132.298 307.042C131.833 307.041 131.385 307.216 131.045 307.53C130.705 307.844 130.499 308.274 130.469 308.733C130.469 309.427 131.136 309.951 131.478 310.56C131.713 310.979 131.836 311.451 131.836 311.93C131.836 312.409 131.713 312.881 131.478 313.3C131.227 313.71 130.877 314.052 130.459 314.294C130.041 314.536 129.568 314.671 129.084 314.687C128.39 314.622 127.704 314.497 127.032 314.315C126.656 314.18 126.247 314.168 125.864 314.281C125.481 314.394 125.145 314.626 124.905 314.943C124.665 315.26 124.535 315.644 124.533 316.039C124.532 316.435 124.658 316.82 124.895 317.139C125.58 318.641 126.796 319.843 128.315 320.521C129.821 321.231 131.489 321.54 133.153 321.418C135.181 321.389 137.146 320.719 138.761 319.507C139.561 318.854 140.194 318.024 140.607 317.083C141.02 316.142 141.202 315.118 141.138 314.095C141.048 313.076 140.641 312.109 139.974 311.328C139.306 310.547 138.411 309.989 137.411 309.731L137.462 309.089Z" fill="#73A624"/>
<path d="M172.321 272.768L175.028 278.239L198.756 277.09L198.243 272.604C198.243 272.604 190.935 262.19 182.991 261.661C175.046 261.132 171.348 266.056 172.321 272.768Z" fill="#D12424"/>
<path d="M172.324 272.7H198.756C198.756 272.7 191.305 262.196 183.204 261.663C175.103 261.129 171.332 265.93 172.324 272.7Z" fill="#EA3333"/>
<path d="M178.592 269.704C179.423 270.049 182.205 272.228 182.531 272.282C181.798 271.019 180.983 269.806 180.091 268.651C180.091 268.651 181.772 266.836 186.686 268.815C186.686 268.815 185.783 270.757 187.192 271.81C188.602 272.864 188.566 269.541 188.475 269.069C188.385 268.597 191.818 269.868 193.625 272.555H198.756C198.756 272.555 191.294 262.187 183.181 261.661C175.068 261.134 171.292 266.018 172.34 272.7H177.544C177.652 271.447 178.014 269.45 178.592 269.704Z" fill="#C91D1D"/>
<path d="M181.555 265.71C184.25 265.527 186.944 266.064 189.366 267.266C191.787 268.468 193.849 270.293 195.341 272.555H198.756C198.756 272.555 191.294 262.187 183.181 261.661C175.068 261.134 171.292 266.018 172.34 272.7H174.816C174.526 266.963 177.923 265.873 181.555 265.71Z" fill="#FF3333"/>
<path d="M179.923 271.259C179.923 271.541 179.768 271.674 179.473 271.541C179.313 271.476 179.17 271.376 179.056 271.249C178.942 271.123 178.86 270.973 178.816 270.811C178.816 270.529 178.989 270.413 179.283 270.529C179.441 270.596 179.581 270.696 179.692 270.823C179.803 270.949 179.882 271.099 179.923 271.259Z" fill="#FF7E70"/>
<path d="M183.247 270.131C183.247 270.417 183.098 270.56 182.8 270.445C182.632 270.38 182.485 270.281 182.37 270.157C182.255 270.033 182.176 269.887 182.139 269.731C182.139 269.445 182.288 269.302 182.585 269.416C182.752 269.483 182.898 269.583 183.013 269.707C183.128 269.831 183.208 269.976 183.247 270.131Z" fill="#FF7E70"/>
<path d="M185.462 271.226C185.462 271.509 185.322 271.664 185.01 271.561C184.844 271.486 184.7 271.384 184.587 271.259C184.474 271.135 184.395 270.992 184.355 270.84C184.355 270.557 184.495 270.415 184.807 270.518C184.972 270.59 185.117 270.69 185.23 270.812C185.343 270.935 185.422 271.076 185.462 271.226Z" fill="#FF7E70"/>
<path d="M191.001 271.25C191.001 271.519 190.851 271.67 190.551 271.552C190.389 271.482 190.247 271.381 190.133 271.256C190.02 271.131 189.938 270.986 189.894 270.83C189.894 270.544 190.044 270.41 190.363 270.527C190.524 270.596 190.666 270.697 190.776 270.822C190.887 270.947 190.964 271.094 191.001 271.25Z" fill="#FF7E70"/>
<path d="M134.907 272.908L131.18 276.441L150.078 307.042L154.33 306.353C155.862 303.3 156.66 299.926 156.66 296.503C156.66 293.081 155.862 289.707 154.33 286.653C149.011 276.353 141.102 271.618 134.907 272.908Z" fill="#D12424"/>
<path d="M134.504 272.906L154.287 305.934C155.847 302.916 156.66 299.58 156.66 296.197C156.66 292.813 155.847 289.478 154.287 286.459C148.869 276.311 140.813 271.63 134.504 272.906Z" fill="#EA3333"/>
<path d="M142.334 280.765C142.584 281.813 142.334 285.359 142.513 285.673C142.691 285.988 144.492 282.634 144.492 282.634C144.492 282.634 147.739 284.73 149.219 290.861C149.219 290.861 146.508 289.743 146.437 291.507C146.365 293.271 149.862 293.254 150.29 293.097C150.718 292.939 151.948 297.288 150.432 299.542L154.285 305.934C155.846 302.916 156.66 299.58 156.66 296.197C156.66 292.813 155.846 289.478 154.285 286.459C148.934 276.311 140.818 271.63 134.504 272.906L138.392 279.351C139.766 279.595 142.156 280.032 142.334 280.765Z" fill="#C91D1D"/>
<path d="M148.649 284.381C151.966 289.621 154.749 295.926 151.734 301.69L154.285 305.934C155.846 302.916 156.66 299.58 156.66 296.197C156.66 292.813 155.846 289.478 154.285 286.459C148.934 276.311 140.818 271.63 134.504 272.906L136.287 275.98C142.084 275.613 145.777 279.84 148.649 284.381Z" fill="#FF3333"/>
<path d="M141.867 282.671C141.584 282.671 141.284 282.35 141.196 281.736C141.135 281.498 141.135 281.234 141.197 280.996C141.26 280.759 141.379 280.566 141.531 280.455C141.814 280.455 142.114 280.775 142.22 281.389C142.276 281.631 142.27 281.896 142.205 282.132C142.14 282.368 142.02 282.56 141.867 282.671Z" fill="#FF7E70"/>
<path d="M145.18 285.992C145.019 286.003 144.859 285.962 144.734 285.877C144.609 285.793 144.528 285.672 144.509 285.539C144.455 285.414 144.463 285.277 144.532 285.156C144.6 285.036 144.724 284.943 144.875 284.898C145.165 284.835 145.454 285.036 145.546 285.338C145.6 285.465 145.592 285.604 145.524 285.727C145.456 285.849 145.332 285.944 145.18 285.992Z" fill="#FF7E70"/>
<path d="M146.296 289.309C146.143 289.343 145.988 289.271 145.864 289.109C145.741 288.948 145.659 288.709 145.635 288.444C145.6 288.318 145.582 288.18 145.582 288.04C145.581 287.9 145.599 287.762 145.634 287.635C145.668 287.509 145.719 287.397 145.782 287.309C145.845 287.221 145.918 287.159 145.997 287.127C146.075 287.094 146.157 287.093 146.236 287.123C146.315 287.153 146.389 287.213 146.453 287.299C146.516 287.385 146.568 287.495 146.604 287.62C146.64 287.746 146.659 287.883 146.66 288.023C146.708 288.278 146.697 288.554 146.629 288.794C146.561 289.034 146.441 289.219 146.296 289.309Z" fill="#FF7E70"/>
<path d="M149.622 295.964C149.337 295.964 149.035 295.82 148.946 295.518C148.887 295.392 148.892 295.253 148.958 295.129C149.024 295.006 149.148 294.908 149.302 294.857C149.465 294.852 149.624 294.896 149.749 294.982C149.874 295.067 149.955 295.186 149.977 295.317C150.031 295.441 150.024 295.577 149.958 295.698C149.892 295.818 149.771 295.913 149.622 295.964Z" fill="#FF7E70"/>
<path d="M133.961 271.816L130.072 275.348L149.789 305.934L154.225 305.246C155.825 302.192 156.66 298.816 156.66 295.391C156.66 291.967 155.825 288.591 154.225 285.537C148.675 275.206 140.442 270.473 133.961 271.816Z" fill="#D12424"/>
<path d="M134.504 271.82L154.283 305.934C155.845 302.816 156.66 299.369 156.66 295.873C156.66 292.377 155.845 288.93 154.283 285.812C148.866 275.282 140.829 270.45 134.504 271.82Z" fill="#EA3333"/>
<path d="M142.344 279.922C142.594 281.004 142.344 284.666 142.54 284.991C142.736 285.316 144.5 281.852 144.5 281.852C144.5 281.852 147.761 284.017 149.222 290.349C149.222 290.349 146.514 289.194 146.443 291.016C146.371 292.838 149.864 292.82 150.292 292.676C150.719 292.531 151.949 296.987 150.452 299.314L154.283 305.934C155.845 302.815 156.66 299.366 156.66 295.869C156.66 292.371 155.845 288.922 154.283 285.803C148.937 275.322 140.829 270.488 134.504 271.805L138.406 278.515C139.796 278.714 142.184 279.164 142.344 279.922Z" fill="#C91D1D"/>
<path d="M148.652 283.656C151.984 289.068 154.746 295.598 151.735 301.533L154.283 305.934C155.845 302.815 156.66 299.366 156.66 295.869C156.66 292.371 155.845 288.922 154.283 285.803C148.937 275.322 140.829 270.488 134.504 271.805L136.285 274.997C142.095 274.601 145.783 279.074 148.652 283.656Z" fill="#FF3333"/>
<path d="M140.776 281.563C140.488 281.563 140.165 281.402 140.075 281.106C139.985 280.81 140.075 280.501 140.416 280.46C140.758 280.42 141.009 280.608 141.117 280.918C141.225 281.227 141.063 281.509 140.776 281.563Z" fill="#FF7E70"/>
<path d="M144.802 285.99C144.48 286.012 144.159 285.933 143.905 285.767C143.652 285.602 143.485 285.363 143.439 285.1C143.328 284.844 143.344 284.562 143.483 284.315C143.622 284.068 143.873 283.875 144.183 283.778C144.5 283.783 144.807 283.875 145.054 284.039C145.301 284.204 145.474 284.431 145.545 284.686C145.617 284.94 145.582 285.207 145.447 285.443C145.313 285.679 145.086 285.872 144.802 285.99Z" fill="#FF7E70"/>
<path d="M145.186 288.204C145.11 288.214 145.033 288.21 144.958 288.194C144.884 288.177 144.814 288.148 144.752 288.108C144.691 288.068 144.64 288.017 144.601 287.96C144.562 287.902 144.537 287.838 144.527 287.772C144.492 287.709 144.474 287.64 144.474 287.57C144.473 287.5 144.491 287.431 144.526 287.368C144.56 287.305 144.611 287.249 144.673 287.205C144.736 287.161 144.809 287.13 144.888 287.114C144.966 287.098 145.047 287.097 145.126 287.112C145.205 287.127 145.278 287.157 145.342 287.2C145.405 287.243 145.457 287.298 145.493 287.361C145.529 287.423 145.548 287.492 145.549 287.562C145.574 287.625 145.585 287.691 145.581 287.758C145.576 287.824 145.556 287.889 145.522 287.949C145.489 288.009 145.442 288.062 145.384 288.106C145.326 288.149 145.259 288.183 145.186 288.204Z" fill="#FF7E70"/>
<path d="M149.62 294.856C149.334 294.856 149.03 294.711 148.941 294.404C148.887 294.279 148.894 294.141 148.96 294.019C149.027 293.897 149.147 293.8 149.298 293.749C149.584 293.749 149.888 293.894 149.977 294.2C150.031 294.326 150.024 294.464 149.957 294.586C149.891 294.708 149.77 294.804 149.62 294.856Z" fill="#FF7E70"/>
<path d="M170.137 274.019C170.864 273.623 171.478 273.042 171.918 272.333C172.121 271.789 172.202 271.206 172.156 270.626C172.11 270.046 171.937 269.483 171.651 268.98C171.063 267.679 170.214 266.518 169.158 265.572C168.351 264.788 167.356 264.232 166.273 263.959C165.734 263.819 165.171 263.8 164.624 263.904C164.077 264.007 163.558 264.23 163.104 264.557C162.659 264.898 162.325 265.367 162.148 265.904C161.97 266.441 161.955 267.021 162.107 267.566C161.446 266.548 160.538 265.722 159.471 265.166C158.404 264.61 157.214 264.344 156.017 264.394C154.548 264.47 153.164 265.119 152.153 266.207C151.655 266.738 151.295 267.388 151.105 268.097C150.915 268.806 150.902 269.551 151.067 270.267C151.269 270.968 151.675 271.591 152.231 272.054C152.787 272.516 153.467 272.797 154.183 272.859C153.294 272.528 152.328 272.475 151.409 272.706C150.491 272.938 149.661 273.443 149.026 274.158C148.391 274.872 147.98 275.763 147.845 276.717C147.711 277.67 147.859 278.643 148.271 279.511C148.696 280.312 149.296 281.003 150.024 281.531C150.753 282.059 151.591 282.41 152.473 282.556C154.285 282.842 156.14 282.591 157.815 281.831C159.428 281.076 160.967 280.165 162.409 279.112L170.137 274.019Z" fill="#FFCF08"/>
<path d="M169.225 273.956C169.554 273.479 169.779 272.936 169.885 272.365C169.99 271.793 169.974 271.206 169.836 270.641C169.699 270.077 169.443 269.548 169.087 269.091C168.731 268.634 168.282 268.258 167.771 267.989C167.26 267.72 166.697 267.564 166.121 267.531C165.545 267.498 164.969 267.589 164.43 267.798C163.892 268.007 163.404 268.329 162.999 268.743C162.594 269.157 162.281 269.653 162.081 270.198C161.541 269.181 160.709 268.351 159.694 267.816C158.679 267.282 157.528 267.067 156.391 267.2C155.901 267.23 155.427 267.383 155.011 267.645C154.595 267.906 154.251 268.269 154.009 268.699C153.835 269.221 153.822 269.783 153.972 270.312C154.122 270.842 154.428 271.312 154.85 271.662C155.709 272.346 156.698 272.845 157.756 273.126C155.797 273.005 153.864 273.635 152.346 274.89C151.971 275.151 151.664 275.498 151.451 275.904C151.238 276.309 151.124 276.76 151.121 277.219C151.187 277.59 151.346 277.938 151.581 278.231C151.817 278.524 152.122 278.752 152.469 278.894C153.165 279.175 153.908 279.319 154.657 279.318C157.434 279.44 160.215 279.179 162.921 278.542C164.445 278.219 165.899 277.622 167.211 276.778C168.525 275.922 169.45 274.578 169.785 273.038L169.225 273.956Z" fill="#EFA708"/>
<path d="M201.592 275.893C202.125 276.623 202.869 277.16 203.718 277.429C204.562 277.683 205.38 278.022 206.16 278.441C206.552 278.645 206.889 278.944 207.143 279.313C207.397 279.681 207.56 280.107 207.618 280.555C207.614 280.985 207.522 281.41 207.35 281.801C207.178 282.193 206.928 282.544 206.617 282.832C205.589 283.863 204.278 284.546 202.862 284.788C201.445 285.03 199.99 284.821 198.692 284.187C197.76 283.643 196.893 282.988 196.11 282.235L193.843 280.139L191.26 277.538C189.478 275.233 187.077 273.517 184.355 272.605C184.675 271.823 185.17 271.13 185.798 270.581C186.427 270.032 187.172 269.642 187.974 269.443C189.581 269.054 191.253 269.054 192.859 269.443C193.278 269.599 193.726 269.657 194.169 269.614C194.613 269.57 195.042 269.425 195.424 269.19C195.969 268.666 196.004 267.781 196.408 267.13C196.665 266.732 197.03 266.421 197.459 266.238C197.888 266.054 198.36 266.006 198.815 266.1C199.269 266.206 199.695 266.411 200.065 266.701C200.434 266.991 200.739 267.359 200.959 267.781C201.381 268.634 201.557 269.592 201.469 270.545C201.469 271.467 201.187 272.352 201.1 273.291C200.968 274.191 201.142 275.11 201.592 275.893Z" fill="#9FCC29"/>
<path d="M185.462 275.172C189.23 274.759 192.785 273.193 195.651 270.682C196.116 270.19 196.668 269.791 197.278 269.505C197.578 269.378 197.908 269.344 198.227 269.409C198.545 269.473 198.837 269.633 199.066 269.867C199.25 270.159 199.349 270.498 199.349 270.845C199.349 271.192 199.25 271.531 199.066 271.823C198.726 272.42 198.225 272.927 197.904 273.542C197.688 273.953 197.556 274.403 197.516 274.866C197.477 275.33 197.531 275.796 197.674 276.238C197.818 276.68 198.049 277.087 198.352 277.436C198.656 277.785 199.026 278.068 199.441 278.268C199.983 278.497 200.546 278.673 201.121 278.793C201.695 278.919 202.229 279.186 202.676 279.571C202.893 279.766 203.05 280.019 203.129 280.302C203.209 280.584 203.206 280.883 203.123 281.164C202.964 281.523 202.703 281.826 202.372 282.033C200.645 283.343 198.497 283.951 196.35 283.736C194.203 283.522 192.212 282.501 190.771 280.875C189.895 279.879 189.252 278.702 188.465 277.634C187.751 276.509 186.698 275.646 185.462 275.172Z" fill="#73A624"/>
<path d="M111.306 345.759C115.122 347.241 119.377 347.31 123.243 345.952C125.158 345.267 126.906 344.212 128.378 342.851C129.85 341.491 131.014 339.854 131.798 338.044C132.686 335.638 133.209 333.122 133.352 330.574L134.504 318.597C131.578 319.097 128.564 318.781 125.82 317.686C124.221 316.764 122.442 316.167 120.592 315.932C119.671 315.834 118.739 315.998 117.914 316.403C117.089 316.809 116.405 317.437 115.949 318.212C115.474 319.211 115.547 320.404 115.054 321.386C114.292 322.637 113.053 323.555 111.599 323.946C110.158 324.321 108.788 324.913 107.54 325.699C106.925 326.109 106.474 326.707 106.261 327.396C106.049 328.084 106.087 328.822 106.37 329.487C106.955 330.521 108.345 330.995 108.802 332.082C108.945 332.575 108.958 333.094 108.84 333.593C108.722 334.092 108.476 334.555 108.125 334.94C107.411 335.706 106.763 336.527 106.188 337.395C105.782 338.243 105.625 339.181 105.735 340.108C105.844 341.035 106.216 341.916 106.809 342.655C107.969 344.08 109.529 345.157 111.306 345.759Z" fill="#B55728"/>
<g style="mix-blend-mode:multiply" opacity="0.32">
<path d="M128.229 322.501C124.879 324.896 124.526 327.611 123.292 331.124C122.804 332.194 122.045 333.115 121.092 333.797C120.139 334.479 119.025 334.897 117.861 335.01C116.64 335.203 115.39 335.064 114.241 334.609C113.091 334.154 112.082 333.398 111.319 332.42C109.256 329.705 108.886 326.529 106.206 327.256C106.092 327.576 106.046 327.917 106.07 328.256C106.094 328.595 106.189 328.925 106.347 329.226C106.911 330.273 108.251 330.752 108.692 331.852C108.83 332.351 108.843 332.876 108.729 333.381C108.615 333.886 108.378 334.354 108.04 334.744C107.35 335.519 106.725 336.35 106.17 337.228C105.779 338.086 105.628 339.036 105.733 339.974C105.839 340.912 106.198 341.803 106.77 342.552C107.901 344.024 109.432 345.133 111.178 345.745C114.859 347.245 118.963 347.315 122.693 345.941C124.54 345.248 126.226 344.18 127.646 342.803C129.065 341.426 130.188 339.77 130.945 337.938C131.821 335.477 132.338 332.901 132.479 330.29C132.779 326.972 133.096 323.654 133.396 320.336C131.562 320.752 129.814 321.484 128.229 322.501Z" fill="#B55728"/>
</g>
<path d="M126.183 321.549C125.569 321.052 124.836 320.681 124.035 320.463C123.232 320.251 122.366 320.306 121.606 320.616C121.22 320.774 120.884 321.011 120.627 321.307C120.369 321.603 120.198 321.948 120.128 322.314C120.065 322.684 120.117 323.062 120.278 323.408C120.439 323.755 120.703 324.058 121.043 324.287C121.389 324.506 121.786 324.655 122.206 324.724C122.626 324.793 123.059 324.779 123.472 324.685C124.298 324.477 125.057 324.105 125.69 323.599C126.324 323.125 126.94 322.421 126.693 321.733C126.447 321.044 126.781 321.411 126.183 321.549Z" fill="#8D3800"/>
<path d="M122.533 328.811C122.085 328.401 121.53 328.153 120.946 328.101C120.363 328.049 119.778 328.196 119.275 328.521C118.783 328.866 118.393 329.359 118.153 329.939C117.913 330.52 117.833 331.164 117.922 331.793C118.029 332.437 118.297 333.037 118.697 333.527C119.097 334.016 119.613 334.376 120.189 334.568C120.747 334.754 121.338 334.787 121.91 334.664C122.481 334.542 123.016 334.266 123.466 333.864C123.776 333.595 124.03 333.259 124.214 332.878C124.398 332.496 124.506 332.077 124.533 331.648C124.516 331.2 124.415 330.762 124.234 330.359C124.054 329.956 123.799 329.599 123.485 329.308C122.876 328.625 123.219 329.412 122.533 328.811Z" fill="#8D3800"/>
<path d="M115.601 336.362C114.836 336.106 114.04 335.937 113.232 335.861C112.415 335.784 111.596 335.989 110.928 336.438C110.603 336.67 110.36 336.989 110.232 337.352C110.105 337.716 110.099 338.108 110.215 338.475C110.489 339.066 111.002 339.531 111.642 339.767C112.515 340.21 113.518 340.37 114.498 340.223C114.983 340.144 115.438 339.949 115.819 339.656C116.2 339.363 116.494 338.982 116.671 338.551C116.828 338.113 116.813 337.636 116.628 337.207C116.444 336.778 116.103 336.425 115.666 336.21C115.276 336.073 115.99 336.362 115.601 336.362Z" fill="#8D3800"/>
<g style="mix-blend-mode:multiply" opacity="0.55">
<path d="M209.655 288.558H209.565L209.386 288.399L209.189 288.259C209.138 288.202 209.077 288.155 209.01 288.118L208.311 287.555L208.15 287.432L207.595 287.009L207.434 286.886C206.52 286.182 205.32 285.285 203.851 284.264C204.273 284.113 204.681 283.924 205.069 283.701C203.917 283.496 202.821 283.059 201.85 282.417C200.878 281.775 200.053 280.942 199.426 279.971C197.061 276.909 194.894 272.247 190.236 272.211C188.206 272.27 186.216 271.65 184.593 270.452C180.544 267.179 175.277 268.164 169.957 269.678C166.917 270.549 164.27 272.41 162.451 274.956C161.251 276.716 159.692 278.194 158.599 279.584C156.665 282.047 154.3 285.179 150.842 285.443C148.442 285.637 145.683 284.634 145.468 281.924C145.45 281.76 145.45 281.595 145.468 281.432C141.885 285.619 138.732 290.335 136.189 293.467C136.042 293.645 135.887 293.815 135.723 293.977C135.723 294.188 135.723 294.417 135.723 294.646C135.961 296.757 135.635 298.893 134.778 300.843C133.92 302.793 132.56 304.49 130.832 305.766C131.907 309.532 132.534 313.878 129.399 315.778C128.649 316.223 127.824 316.533 126.963 316.693C127.052 321.585 128.073 324.506 125.619 329.908C122.753 336.137 125.1 339.234 119.188 343.738C117.437 345.011 115.506 346.025 113.455 346.747H113.849H114.136C114.853 346.835 115.587 346.888 116.393 346.923C117.199 346.923 118.041 346.923 118.937 346.923H119.546C120.46 346.923 121.338 346.782 122.43 346.659C146.149 343.721 186.151 288.839 209.834 288.593L209.655 288.558Z" fill="#BD9749"/>
</g>
<path d="M132.535 313.26C134.317 301.038 140.339 289.833 149.546 281.607C154.168 277.574 159.643 274.64 165.56 273.026C171.476 271.411 177.682 271.157 183.71 272.283C192.778 274.23 200.686 279.553 208.343 284.787C213.698 288.502 215.073 290.449 220.517 294.165C221.463 294.808 227.443 295.79 227.55 296.915C227.746 298.702 224.765 301.345 222.98 301.863C203.128 307.541 184.149 315.92 166.574 326.764C157.989 332.123 149.742 337.946 140.603 342.251C131.464 346.556 121.182 349.199 111.24 347.52C113.761 347.915 116.342 347.64 118.723 346.721C121.104 345.802 123.202 344.273 124.806 342.286C128.126 338.446 131.731 318.279 132.535 313.26Z" fill="#FAD15F"/>
<path d="M195.17 281.629C184.862 276.361 171.196 271.654 160.106 277.889C151.771 282.578 146.404 289.532 141.641 297.593C136.879 305.654 136.79 315.734 134.177 324.743C132.578 330.275 130.978 338.546 126.589 342.814C124.757 344.636 122.542 346.039 120.102 346.923C127.344 346.402 134.416 344.506 140.931 341.339C150.03 337.106 158.24 331.311 166.788 326.113C184.303 315.447 203.217 307.21 223 301.632C224.777 301.123 227.745 298.576 227.55 296.767C227.557 296.733 227.557 296.697 227.55 296.662C215.696 296.328 205.495 286.915 195.17 281.629Z" fill="#F9C22D"/>
<path d="M195.17 281.629C184.862 276.361 171.196 271.654 160.106 277.889C151.771 282.578 146.404 289.532 141.641 297.593C136.879 305.654 136.79 315.734 134.177 324.743C132.578 330.275 130.978 338.546 126.589 342.814C124.757 344.636 122.542 346.039 120.102 346.923C127.344 346.402 134.416 344.506 140.931 341.339C150.03 337.106 158.24 331.311 166.788 326.113C184.303 315.447 203.217 307.21 223 301.632C224.777 301.123 227.745 298.576 227.55 296.767C227.557 296.733 227.557 296.697 227.55 296.662C215.696 296.328 205.495 286.915 195.17 281.629Z" fill="#F9C22D"/>
<g style="mix-blend-mode:multiply" opacity="0.55">
<path d="M209.494 291.537C201.612 291.409 193.981 294.246 188.168 299.467C181.059 305.305 174.341 311.353 165.064 313.409C153.673 315.919 145.516 309 140.468 300.251C136.807 307.92 136.541 316.79 134.177 324.912C132.578 330.402 130.978 338.61 126.589 342.845C124.757 344.653 122.542 346.045 120.102 346.923C127.344 346.406 134.416 344.524 140.931 341.381C150.03 337.181 158.24 331.43 166.788 326.271C184.303 315.687 203.217 307.512 223 301.977C224.777 301.471 227.745 298.944 227.55 297.149C227.557 297.115 227.557 297.079 227.55 297.045C221.114 296.965 214.84 295.052 209.494 291.537Z" fill="#F2CC49"/>
</g>
<g style="mix-blend-mode:multiply" opacity="0.55">
<path d="M182.317 310.366C170.535 313.151 163.304 318.056 154.661 326.411C150.357 330.526 145.842 334.946 141.15 339.168L141.856 338.863C150.781 334.533 158.947 328.603 167.431 323.213C177.436 316.987 187.911 311.579 198.756 307.042C192.971 307.761 187.203 309.198 182.317 310.366Z" fill="#D68902"/>
</g>
<path d="M176.301 279.784C174.963 279.304 173.482 279.217 172.083 279.536C170.683 279.855 169.441 280.564 168.543 281.554C168.155 281.954 167.892 282.435 167.781 282.95C167.717 283.205 167.724 283.469 167.802 283.72C167.879 283.972 168.025 284.203 168.227 284.395C168.646 284.673 169.147 284.841 169.671 284.878C170.195 284.916 170.72 284.821 171.185 284.606C172.69 284.107 174.031 283.293 175.092 282.236C175.665 281.744 176.009 281.085 176.059 280.385C176.041 279.687 177.101 279.654 176.301 279.784Z" fill="#E9A000"/>
<path d="M162.916 290.884C162.152 290.456 161.272 290.322 160.426 290.506C159.58 290.69 158.82 291.18 158.277 291.893C157.993 292.212 157.817 292.622 157.776 293.058C157.736 293.495 157.833 293.934 158.054 294.305C158.348 294.563 158.698 294.738 159.072 294.814C159.447 294.89 159.833 294.864 160.196 294.74C161.014 294.632 161.794 294.313 162.469 293.811C162.804 293.55 163.056 293.187 163.193 292.771C163.329 292.354 163.343 291.903 163.232 291.478C162.953 290.667 163.512 290.271 162.916 290.884Z" fill="#E9A000"/>
<path d="M181.966 296.725C180.98 295.74 179.697 295.105 178.313 294.916C176.929 294.726 175.52 294.994 174.304 295.677C173.087 296.36 172.13 297.421 171.579 298.697C171.027 299.973 170.913 301.394 171.252 302.741C171.329 303.142 171.494 303.523 171.735 303.855C171.975 304.187 172.286 304.462 172.645 304.663C173.056 304.798 173.49 304.85 173.921 304.817C174.353 304.784 174.773 304.666 175.159 304.47C177.287 303.599 179.153 302.195 180.574 300.396C181.154 299.723 182.643 297.378 181.966 296.725Z" fill="#E9A000"/>
<path d="M198.188 284.145C197.22 284.635 196.253 285.723 196.62 286.832C196.988 287.941 198.207 288.282 199.252 288.197C199.874 288.182 200.484 288.006 201.033 287.685C201.311 287.531 201.551 287.305 201.733 287.026C201.915 286.748 202.033 286.425 202.078 286.086C202.096 285.612 201.971 285.146 201.722 284.76C201.473 284.374 201.115 284.09 200.704 283.953C199.873 283.666 198.975 283.735 198.188 284.145Z" fill="#E9A000"/>
<path d="M210.112 294.532C209.341 294.215 208.526 293.973 207.684 293.812C206.83 293.659 205.935 293.785 205.196 294.164C204.833 294.354 204.558 294.636 204.412 294.965C204.265 295.295 204.257 295.654 204.386 295.988C204.547 296.283 204.802 296.538 205.124 296.726C205.447 296.915 205.826 297.03 206.223 297.06C207.015 297.103 207.81 297.032 208.572 296.852C209.136 296.78 209.679 296.622 210.171 296.388C210.413 296.264 210.611 296.091 210.746 295.886C210.881 295.681 210.948 295.452 210.941 295.22C210.887 295.006 210.766 294.807 210.589 294.642C210.413 294.477 210.188 294.351 209.934 294.276C209.441 294.1 210.586 294.724 210.112 294.532Z" fill="#E9A000"/>
<path d="M196.163 302.266C194.935 301.699 193.577 301.441 192.217 301.516C191.536 301.565 190.881 301.784 190.317 302.152C189.752 302.519 189.297 303.022 188.998 303.61C188.73 304.208 188.716 304.883 188.956 305.491C189.197 306.1 189.675 306.595 190.289 306.873C191.053 307.099 191.871 307.099 192.635 306.873C193.605 306.686 194.518 306.292 195.308 305.721C195.696 305.428 195.994 305.04 196.17 304.597C196.347 304.155 196.394 303.675 196.308 303.208C196.054 302.249 197.054 301.847 196.163 302.266Z" fill="#E9A000"/>
<path d="M166.574 310.528C165.521 310.756 164.56 311.259 163.805 311.977C163.628 312.162 163.493 312.378 163.408 312.612C163.324 312.846 163.291 313.094 163.313 313.34C163.334 313.586 163.41 313.826 163.534 314.044C163.658 314.263 163.829 314.456 164.036 314.611C164.393 314.765 164.789 314.825 165.18 314.784C165.571 314.744 165.943 314.604 166.255 314.381C166.927 314.014 167.428 313.426 167.657 312.734C167.763 312.384 167.764 312.014 167.661 311.663C167.558 311.312 167.354 310.994 167.071 310.742C166.485 310.265 167.302 310.298 166.574 310.528Z" fill="#E9A000"/>
<path d="M146.54 318.205C145.444 318.468 144.455 319.038 143.699 319.842C142.944 320.646 142.457 321.648 142.3 322.718C142.186 323.433 142.306 324.164 142.642 324.812C142.821 325.132 143.087 325.4 143.412 325.587C143.737 325.774 144.109 325.873 144.488 325.875C145.565 325.875 146.318 324.877 146.882 323.994C147.446 323.111 147.856 322.359 148.318 321.59C148.6 321.224 148.788 320.798 148.865 320.349C148.942 319.9 148.907 319.44 148.762 319.006C148.549 318.695 148.248 318.448 147.894 318.295C147.539 318.142 147.147 318.087 146.762 318.139C146.061 318.205 147.292 318.025 146.54 318.205Z" fill="#E9A000"/>
<g style="mix-blend-mode:screen" opacity="0.32">
<path d="M192.738 282.749C190.481 279.919 187.244 278.028 183.661 277.447C180.11 276.895 176.484 277.069 173.003 277.959C164.679 279.915 157.095 284.209 151.154 290.33C149.265 291.951 148.065 294.225 147.797 296.692C147.905 298.107 148.431 299.457 149.31 300.574C150.189 301.691 151.381 302.523 152.735 302.966C155.458 303.797 158.344 303.943 161.137 303.39C167.842 302.316 174.399 300.472 180.677 297.894C183.307 297.012 185.814 295.801 188.137 294.289C190.386 292.729 192.053 290.474 192.88 287.874C193.279 286.575 193.325 285.194 193.013 283.871C192.701 282.549 192.042 281.332 191.104 280.345L192.738 282.749Z" fill="#FAD15F"/>
</g>
<path d="M78.0056 130.918L91.0951 154.146L146.689 129.652L111.677 114.266C111.677 114.266 86.5889 124.974 78.0056 130.918Z" fill="#EFEFEC"/>
<path d="M159.981 105.727L143.366 130.883L224.235 124.978L212.176 100.972L159.981 105.727Z" fill="#EFEFEC"/>
<path d="M183.455 146.258L224.235 125.344L142.639 129.06L91.2993 154.147L183.455 146.258Z" fill="#E2B58B"/>
<path d="M99.0539 72.8761L144.357 137.53L148.905 134.632L106.879 66.6304C106.879 66.6304 99.0897 67.0444 99.0539 72.8761Z" fill="#716361"/>
<path d="M115.671 74.2691L156.262 140.853L161.091 138.363L124.094 68.847C124.094 68.847 116.179 68.635 115.671 74.2691Z" fill="#716361"/>
<path d="M121.45 230.946L179.888 231.693L208.086 213.257L224.235 125.344L142.639 129.113L91.2993 154.553L121.45 230.946Z" fill="#EFEFEC"/>
<g style="mix-blend-mode:multiply">
<path d="M183.766 127.559L142.921 129.42L91.2993 154.785L121.616 230.948L180.375 231.693L197.648 220.491L183.766 127.559Z" fill="#EAE6DC"/>
</g>
<path d="M179.923 231.693L208.099 213.257L224.235 125.344L183.7 134.766L179.923 231.693Z" fill="#EFEFEC"/>
<path d="M158.638 196.243C153.718 197.846 148.593 198.775 143.41 199.002C138.596 199.529 133.729 199.362 128.965 198.507L129.746 211.752L161.091 210.39L158.783 196.703L158.638 196.243ZM138.522 208.834L132.635 209.117L132.163 202.609C132.163 201.442 137.814 201.053 137.923 202.238L138.522 208.834ZM147.39 208.427L141.212 208.71L140.467 202.079C140.34 200.876 146.354 200.469 146.499 201.69L147.39 208.427ZM156.712 208.003L150.206 208.304L149.316 201.548C149.152 200.328 155.44 199.904 155.639 201.141L156.712 208.003Z" fill="#716361"/>
<path d="M135.611 202.911L136.024 208.429L137.827 208.33L137.43 203.373C137.399 202.993 136.482 202.828 135.611 202.911Z" fill="#716361"/>
<path d="M134.745 202.922H134.366H134.042H133.789H133.699H133.518H133.41C133.391 202.975 133.391 203.032 133.41 203.085L133.428 208.429L135.611 208.331L135.232 202.89L134.745 202.922Z" fill="#716361"/>
<path d="M143.366 201.807L144.136 208.429L146.689 208.312L145.96 202.487C145.879 201.885 144.602 201.71 143.366 201.807Z" fill="#716361"/>
<path d="M143.489 201.821H143.146H142.849H142.614H142.458H142.364L142.271 201.918C142.254 201.982 142.254 202.05 142.271 202.113L142.739 207.961L144.474 208.429L143.911 201.782L143.489 201.821Z" fill="#716361"/>
<path d="M152.228 201.801L153.128 207.321L155.552 207.226L154.707 202.339C154.707 201.881 153.385 201.722 152.228 201.801Z" fill="#716361"/>
<path d="M151.794 201.814H151.307H150.901H150.597H150.496H150.272H150.151H150.029C150.007 201.866 150.007 201.921 150.029 201.973L150.841 206.748L153.336 207.321L152.342 201.782L151.794 201.814Z" fill="#716361"/>
<path d="M122.03 195.474C125.304 197.026 128.813 197.953 132.394 198.212H132.483C136.025 198.541 139.589 198.541 143.131 198.212C146.848 197.915 150.535 197.288 154.152 196.337C158.284 195.355 162.227 193.636 165.812 191.255C167.463 190.036 166.274 189.38 165.226 189.661C159.015 191.536 156.353 191.855 152.803 191.536L132.82 193.411C129.381 194.392 125.774 194.527 122.278 193.805C121.338 193.861 120.557 194.668 122.03 195.474Z" fill="#716361"/>
<path d="M132.288 185.384L132.801 192.92L153.336 190.833L152.236 182.949C148.951 184.111 145.548 184.864 142.097 185.191C138.844 185.633 135.554 185.698 132.288 185.384ZM143.545 186.408C143.545 185.635 147.322 185.172 147.414 185.964L148.037 190.311L144.114 190.717L143.545 186.408ZM136.597 187.22C136.597 186.447 140.264 186.002 140.264 186.795L140.704 191.065L137.037 191.451L136.597 187.22Z" fill="#716361"/>
<path d="M127.344 183.631C129.705 184.559 132.2 185.063 134.724 185.121C137.151 185.23 139.582 185.136 141.994 184.838C144.514 184.537 147.006 184.026 149.447 183.31C152.196 182.566 154.816 181.375 157.208 179.782C158.317 178.952 157.553 178.537 156.844 178.782C145.012 182.782 141.304 178.518 141.304 178.518C141.304 178.518 138.686 183.593 127.453 182.706C126.835 182.593 126.29 183.14 127.344 183.631Z" fill="#716361"/>
<path d="M138.935 187.406L139.141 190.704L140.043 190.581L139.836 187.671C139.836 187.406 139.373 187.336 138.935 187.406Z" fill="#716361"/>
<path d="M145.582 186.301L145.844 189.596L146.689 189.458L146.45 186.561C146.427 186.283 145.958 186.231 145.582 186.301Z" fill="#716361"/>
<path d="M144.933 186.796H144.78H144.651H144.544H144.474L144.698 189.596L145.582 189.478L145.31 186.273H145.146L144.933 186.796Z" fill="#716361"/>
<g style="mix-blend-mode:multiply" opacity="0.55">
<g style="mix-blend-mode:multiply" opacity="0.55">
<path d="M110.361 187.679L170.037 184.518C170.037 184.518 182.481 150.583 183.849 146.446C186.071 140 185.112 135.791 188.329 129.771L121.364 139.698L91.5351 154.437L91.944 155.502C96.7259 160.03 110.361 187.679 110.361 187.679Z" fill="#D6C2A6"/>
</g>
</g>
<path d="M196.325 134.206C197.108 130.102 193.805 126.353 193.345 122.178C193.182 120.539 193.458 118.886 194.144 117.402C194.829 115.918 195.897 114.662 197.227 113.774C197.788 113.372 198.44 113.133 199.118 113.081C199.455 113.063 199.79 113.139 200.09 113.301C200.389 113.463 200.642 113.707 200.821 114.005C201.417 115.142 200.446 116.475 199.56 117.381C199.914 117.518 200.291 117.577 200.668 117.553C201.044 117.529 201.412 117.423 201.747 117.243C202.082 117.062 202.377 116.81 202.613 116.504C202.85 116.197 203.022 115.842 203.119 115.462C203.269 114.678 203.17 113.864 202.838 113.144C202.507 112.423 201.96 111.834 201.28 111.465C200.592 111.121 199.838 110.942 199.075 110.942C198.312 110.942 197.558 111.121 196.87 111.465C195.476 112.139 194.264 113.165 193.345 114.449C192.116 115.929 191.182 117.65 190.597 119.511C190.012 121.372 189.789 123.335 189.939 125.287C190.131 127.237 190.826 129.097 191.951 130.668C193.075 132.238 194.587 133.461 196.325 134.206Z" fill="#FBDF6A"/>
<path d="M129.846 147.5C130.463 143.022 129.813 138.466 127.965 134.319C127.008 132.255 125.514 130.468 123.631 129.132C121.748 127.795 119.539 126.956 117.221 126.696C116.327 126.566 115.413 126.657 114.565 126.96C113.716 127.264 112.961 127.77 112.368 128.432C111.894 129.216 111.73 130.14 111.908 131.032C112.086 131.924 112.593 132.722 113.335 133.277C114.104 133.798 115.02 134.077 115.958 134.077C116.897 134.077 117.812 133.798 118.582 133.277C119.331 132.731 119.931 132.015 120.328 131.191C120.724 130.367 120.906 129.462 120.856 128.554C120.721 126.728 119.883 125.017 118.51 123.761C117.966 123.187 117.3 122.734 116.558 122.434C115.816 122.135 115.016 121.995 114.212 122.024C113.414 122.084 112.667 122.431 112.118 122.996C111.568 123.561 111.255 124.304 111.24 125.081C112.104 124.486 113.142 124.176 114.201 124.196C115.26 124.215 116.285 124.563 117.126 125.188C117.967 125.813 118.579 126.682 118.873 127.669C119.167 128.656 119.128 129.709 118.761 130.672C118.474 131.485 117.887 132.165 117.113 132.583C116.72 132.775 116.277 132.849 115.84 132.797C115.404 132.744 114.993 132.567 114.66 132.287C114.3 131.899 114.101 131.394 114.101 130.872C114.101 130.35 114.3 129.845 114.66 129.457C115.038 129.081 115.504 128.801 116.019 128.64C116.534 128.48 117.082 128.444 117.615 128.536C118.678 128.729 119.678 129.163 120.534 129.804C123.077 131.608 125.008 134.107 126.079 136.98C127.151 139.854 127.315 142.972 126.551 145.937L129.846 147.5Z" fill="#FBDF6A"/>
<g style="mix-blend-mode:multiply">
<path d="M177.708 193.921C175.93 195.051 174.045 196.094 172.285 196.96C161.349 202.26 149.596 201.624 138.5 196.96C127.498 192.273 118.151 184.437 111.65 174.45C108.364 169.104 105.692 163.408 103.684 157.47L96.8383 160.827L123.19 227.049L176.072 227.261C176.712 222.827 177.708 193.921 177.708 193.921Z" fill="#F1EAE2"/>
</g>
<path d="M220.126 128.572C218.408 126.358 216.463 124.319 214.32 122.488C212.164 120.636 209.458 119.498 206.592 119.238C204.326 119.19 202.113 119.907 200.33 121.265C198.547 122.623 197.305 124.54 196.815 126.688C196.493 124.022 195.129 121.578 193.005 119.861C190.88 118.133 188.533 116.681 186.024 115.539C183.632 115.215 181.197 115.367 178.867 115.985C176.538 116.603 174.362 117.675 172.472 119.135C170.715 120.34 169.454 122.109 168.911 124.13C168.669 126.58 169.099 129.049 170.157 131.285C171.413 135.218 173.21 138.968 175.5 142.434C176.573 143.93 177.87 145.264 179.346 146.392L201.748 143.229C207.856 139.565 213.893 135.745 219.787 131.769C220.309 131.497 220.708 131.048 220.909 130.508C220.927 130.15 220.866 129.792 220.731 129.458C220.596 129.125 220.39 128.823 220.126 128.572Z" fill="#FBDF6A"/>
<path d="M216.922 129.714L212.834 126.555C211.164 125.096 209.242 123.979 207.169 123.265C206.151 122.91 205.053 122.88 204.018 123.178C202.982 123.477 202.057 124.089 201.361 124.938C200.771 126.019 200.319 127.174 200.016 128.376C199.912 129.088 199.585 129.746 199.085 130.247C198.586 130.748 197.941 131.065 197.251 131.149C196.561 131.233 195.863 131.081 195.264 130.714C194.666 130.347 194.2 129.787 193.939 129.119C193.043 127.8 192.559 126.22 191.716 124.845C190.787 123.41 189.555 122.213 188.114 121.343C186.673 120.474 185.06 119.956 183.398 119.827C180.157 119.645 176.949 120.58 174.273 122.485C171.656 124.345 169.339 126.622 167.407 129.231C166.761 130.049 166.206 131.405 167.084 132.093C167.962 132.781 168.769 132.093 169.414 131.573C171.386 129.918 173.197 128.06 175.277 126.536C177.353 124.906 179.848 123.949 182.448 123.785C183.776 123.723 185.099 124.001 186.3 124.594C187.5 125.187 188.542 126.077 189.332 127.186C190.156 128.469 190.533 129.993 191.34 131.257C192.268 132.684 193.692 133.685 195.315 134.052C196.938 134.419 198.634 134.124 200.052 133.227C201.221 132.191 202.257 131.004 203.136 129.695C203.573 129.054 204.136 128.515 204.788 128.115C205.439 127.715 206.165 127.461 206.918 127.372C207.783 127.484 208.615 127.781 209.362 128.245C210.109 128.709 210.754 129.33 211.257 130.067C212.241 131.557 213.511 132.822 214.986 133.784C215.698 134.186 216.534 134.286 217.316 134.063C217.704 133.94 218.045 133.695 218.292 133.362C218.539 133.029 218.681 132.624 218.696 132.204C218.679 131.089 217.764 130.346 216.922 129.714Z" fill="#E5B348"/>
<path d="M151.121 121.136C151.121 121.136 158.554 109.204 169.379 112.688C180.204 116.171 179.923 127.129 179.923 127.129C179.923 127.129 174.106 143.087 163.633 143.068C153.159 143.05 152.825 125.233 151.121 121.136Z" fill="#BE7139"/>
<g style="mix-blend-mode:multiply" opacity="0.55">
<path d="M175.987 116.737C175.533 118.671 174.536 120.423 173.122 121.77C170.293 124.396 166.093 126.712 162.385 124.323C159.222 122.244 157.921 118.451 154.811 116.481C153.417 117.789 152.178 119.264 151.121 120.876C152.878 125.016 152.878 143.069 163.615 143.069C174.353 143.069 179.923 126.93 179.923 126.93C179.716 123.178 178.334 119.599 175.987 116.737Z" fill="#C47F4C"/>
</g>
<path d="M158.167 150.29L185.526 146.583L191.001 145.413C189.142 145.109 187.306 144.67 185.508 144.099C181.481 141.939 179.892 137.98 181.676 134.182C182.859 131.644 187.063 125.399 182.4 123.383C181.634 123.087 180.816 122.959 179.998 123.005C178.205 123.047 176.447 123.517 174.864 124.377C173.281 125.236 171.918 126.461 170.884 127.955C168.906 130.852 167.634 134.326 164.102 135.676C157.478 138.286 159.509 129.286 157.92 125.687C157.184 124.254 156.125 123.02 154.829 122.087C152.87 120.419 150.508 119.316 147.989 118.892C145.471 118.468 142.886 118.738 140.505 119.675C137.68 121.046 135.386 123.339 133.987 126.191C132.653 128.868 131.667 131.712 131.055 134.65C130.578 136.792 129.89 139.707 127.682 140.679C125.474 141.651 122.789 138.61 121.235 137.08C118.268 134.326 112.863 133.48 109.207 133.84C102.478 134.596 97.2671 141.633 99.6339 148.239C101.231 152.061 104.077 155.202 107.688 157.13L107.794 157.022C108.271 157.238 107.971 157.292 108.43 157.202C110.284 158.804 113.252 158.642 115.601 158.48C120.599 158.156 125.35 157.724 130.366 157.256C138.544 156.5 146.598 155.114 154.652 154.448L159.05 154.124L158.167 150.29Z" fill="#FBDF6A"/>
<path d="M164.191 143.279C166.247 142.358 171.128 134.847 173.452 137.646C175.239 139.907 173.881 144.705 174.453 147.278L174.56 147.626L179.923 146.861C178.327 145.833 177.18 144.266 176.705 142.462C176.304 140.88 176.353 139.221 176.848 137.664C177.147 136.957 177.289 136.196 177.264 135.432C177.24 134.668 177.049 133.918 176.705 133.23C175.937 132.778 174.614 132.292 173.916 132.935C173.827 132.935 172.504 133.926 171.145 134.673C170.031 135.364 168.973 136.137 167.981 136.986C165.774 138.798 163.106 139.999 160.258 140.463C157.04 140.828 155.985 138.898 155.341 136.308C154.805 134.221 154.698 130.901 152.999 129.145C152.477 128.621 151.848 128.209 151.152 127.937C150.456 127.664 149.709 127.537 148.959 127.563C145.938 127.529 142.998 128.505 140.628 130.327C137.783 132.452 135.593 135.297 134.299 138.55C133.638 140.289 133.101 142.028 132.386 143.766C131.01 147.017 128.435 148.582 124.86 146.026C122.285 144.166 120.605 141.836 117.548 140.515C113.775 138.863 110.146 138.498 106.821 140.359C100.027 144.096 104.729 151.711 110.968 154.511C112.023 154.98 112.095 155.919 112.953 154.511C113.811 153.102 110.092 151.242 109.377 150.268C106.231 146.426 111.398 143.523 115.188 144.166C118.978 144.809 121.284 148.408 125.02 149.434C126.602 149.795 128.255 149.73 129.802 149.246C131.348 148.762 132.73 147.877 133.799 146.687C136.498 143.836 138.304 140.046 140.521 136.847C141.951 134.795 145.544 131.631 148.566 133.961C151.212 135.943 151.337 140.115 153.768 142.462C156.736 145.279 160.991 144.74 164.191 143.279Z" fill="#E5B348"/>
<path d="M142.282 152.372C142.282 152.372 141.013 132.633 156.954 135.622C172.406 138.488 173.277 149.242 173.277 149.242C173.277 149.242 147.886 157.732 142.282 152.372Z" fill="#BE7139"/>
<path d="M213.157 134.641C213.157 134.641 200.703 121.769 189.548 133.815C183.018 140.87 189.263 148.607 189.263 148.607L213.157 134.641Z" fill="#BE7139"/>
<g style="mix-blend-mode:multiply" opacity="0.55">
<path d="M220.142 128.757L219.109 127.472C216.081 125.401 213.499 123.081 209.242 124.884C206.018 127.454 203.898 132.131 200.336 134.327C196.774 136.523 191.698 135.755 188.082 137.38C186.965 138.907 185.605 140.24 184.057 141.325C183.294 142.471 182.296 143.44 181.128 144.167C179.961 144.894 178.651 145.361 177.288 145.538C175.627 145.837 173.921 145.76 172.293 145.312C170.666 144.864 169.16 144.057 167.884 142.95C167.741 142.95 162.131 141.379 162.006 141.379C153.795 142.128 159.032 147.073 142.984 146.02C141.066 147.261 138.852 147.964 136.572 148.055C132.386 150.179 126.651 150.429 121.77 150.947C118.618 151.268 113.114 152.268 109.659 150.626C108.518 150.096 107.259 149.879 106.008 149.995C104.756 150.111 103.558 150.556 102.534 151.286L101.269 152.197C102.91 154.178 104.888 155.852 107.112 157.142L107.218 157.035C107.699 157.249 107.397 157.302 107.86 157.213C109.73 158.802 112.722 158.641 115.091 158.481C120.132 158.159 124.923 157.731 129.981 157.267C138.228 156.517 146.35 155.142 154.472 154.482L158.907 154.16L158.782 153.625C163.482 152.618 168.121 151.342 172.675 149.805C172.626 149.32 172.531 148.842 172.39 148.376L185.553 146.591L187.334 146.216C187.704 147.095 188.163 147.932 188.705 148.716L195.438 144.824L201.743 143.896C206.73 140.807 211.646 137.576 216.509 134.274C216.733 134.26 216.954 134.218 217.168 134.149C217.447 134.056 217.702 133.905 217.917 133.704C218.132 133.504 218.302 133.26 218.415 132.988L219.786 132.06C220.308 131.779 220.707 131.315 220.908 130.757C220.928 130.388 220.87 130.02 220.738 129.675C220.606 129.331 220.403 129.018 220.142 128.757Z" fill="#C47F4C"/>
</g>
<path d="M91.2993 153.533L111.338 179.626L165.904 175.148L184.355 146.392L91.2993 153.533Z" fill="#EFEFEC"/>
<g style="mix-blend-mode:multiply">
<path d="M125.097 153.039L94.6227 155.426L113.065 178.518L159.983 174.593C148.222 167.662 136.677 160.324 125.097 153.039Z" fill="#F2EBE5"/>
</g>
<g style="mix-blend-mode:multiply">
<path d="M198.566 194.671L201.199 147.5L196.869 148.143L196.145 195.082L180.065 227.815L179.923 231.693L181.796 230.46L197.276 204.033L207.313 213.611L208.002 213.164L208.726 209.179L198.566 194.671Z" fill="#EBE5DF"/>
</g>
<g style="mix-blend-mode:multiply" opacity="0.55">
<path d="M218.045 159.694L224.235 125.344L184.355 146.489C184.355 146.489 194.065 170.613 198.59 176.303C202.405 174.229 218.045 159.694 218.045 159.694Z" fill="#DBC9B0"/>
</g>
<path d="M200.271 167.44L229.774 146.543L225.222 125.344L184.355 146.597L200.271 167.44Z" fill="#EFEFEC"/>
<g style="mix-blend-mode:multiply">
<path d="M187.678 148.536L200.225 164.117L227.559 145.659L226.752 141.961C214.492 143.673 199.902 146.806 187.678 148.536Z" fill="#F2EBE5"/>
</g>
<circle cx="125.087" cy="245.54" r="3.87731" fill="#73A624"/>
<path d="M208.591 251.708C207.441 253.731 204.145 253.131 202.349 252.051C200.553 250.972 198.143 248.403 200.191 244.994C202.239 241.586 205.756 243.804 207.552 244.883C209.348 245.963 209.742 249.684 208.591 251.708Z" fill="#73A624"/>
<path d="M242.814 167.15C244.814 168.903 242.621 173.234 240.494 175.513C238.368 177.793 234.127 180.731 230.805 177.632C227.484 174.533 231.777 170.082 233.904 167.803C236.03 165.524 240.813 165.398 242.814 167.15Z" fill="#BE7139"/>
<path d="M287.511 351.301C282.739 355.628 275.905 356.85 273.231 353.902C270.558 350.953 270.531 346.968 275.302 342.641C280.074 338.314 283.565 338.33 286.238 341.278C288.912 344.227 292.282 346.974 287.511 351.301Z" fill="#FF3333"/>
</svg>
