<svg width="104" height="63" viewBox="0 0 104 63" fill="none" xmlns="http://www.w3.org/2000/svg">
<path d="M104 39.5963C104 37.4199 101.989 35.7644 99.779 36.1222L98.8057 36.2798C98.447 36.3379 98.1939 36.6427 98.1999 36.9857C98.1969 39.0367 97.357 41.003 95.8641 42.4535C94.3685 43.9066 92.3401 44.7229 90.225 44.7229C88.1099 44.7229 86.0814 43.9066 84.5858 42.4535C83.0902 41.0004 82.25 39.0296 82.25 36.9746C82.25 36.5856 81.9254 36.2702 81.525 36.2702H78.625C76.623 36.2702 75 37.8471 75 39.7922V59.1707C75 61.0954 76.5904 62.6637 78.5713 62.6922L99.941 62.9996C101.789 63.0262 103.362 61.6971 103.592 59.9149L103.994 56.7849C104.044 56.3989 103.762 56.0469 103.365 55.9986C102.968 55.9503 102.605 56.2242 102.556 56.6102L102.153 59.7402C102.015 60.8095 101.071 61.6069 99.9624 61.591L78.5928 61.2836C77.4043 61.2665 76.45 60.3255 76.45 59.1707V39.7922C76.45 38.6251 77.4238 37.679 78.625 37.679H80.8279C81.0002 39.8499 81.9647 41.8992 83.5605 43.4497C85.328 45.1669 87.7253 46.1317 90.225 46.1317C92.7246 46.1317 95.1219 45.1669 96.8894 43.4497C98.5108 41.8743 99.4805 39.7842 99.6297 37.5746L100.017 37.5118C101.343 37.2972 102.55 38.2904 102.55 39.5963V52.4712C102.55 52.8602 102.875 53.1756 103.275 53.1756C103.675 53.1756 104 52.8602 104 52.4712V39.5963Z" fill="#FFCA0F"/>
<path fill-rule="evenodd" clip-rule="evenodd" d="M88.485 25C89.229 25 89.896 25.3202 90.348 25.8266C90.8729 25.3159 91.5984 25 92.4 25C94.0016 25 95.2999 26.2615 95.2999 27.8176V28.1669C95.7087 27.9444 96.1801 27.8176 96.682 27.8176C98.3156 27.8176 99.6105 29.1567 99.5086 30.7408L98.9693 39.1238C98.9318 39.7082 98.7448 40.2742 98.4254 40.7707L98.0949 41.2845L96.6498 43.6713L95.4 42.957L96.8599 40.5458L97.1958 40.0241C97.3874 39.7262 97.4996 39.3866 97.5222 39.0359L98.0614 30.6529C98.1112 29.8799 97.4793 29.2263 96.682 29.2263C95.9187 29.2263 95.2999 29.8275 95.2999 30.5691V43.4476C95.2999 44.6094 94.279 45.5201 93.0927 45.4273H91.675C91.1179 45.4273 90.6098 45.2238 90.225 44.8892C89.8402 45.2238 89.332 45.4273 88.775 45.4273H87.1126C86.5921 45.4273 86.0929 45.2264 85.7248 44.8688C85.5146 44.6646 85.357 44.4188 85.2605 44.1514C84.929 44.2117 84.5716 44.1729 84.2329 44.0084C84.0757 43.932 83.9321 43.8315 83.8078 43.7107L83.1873 43.1078L84.2126 42.1117L84.8331 42.7145C84.8472 42.7282 84.8635 42.7397 84.8814 42.7483C85.0048 42.8083 85.15 42.7211 85.15 42.587V30.6351C85.15 29.8571 84.5008 29.2263 83.7 29.2263C82.8992 29.2263 82.25 29.8571 82.25 30.6351V36.9746H80.8V30.6351C80.8 29.079 82.0984 27.8176 83.7 27.8176C84.2308 27.8176 84.7284 27.9561 85.1563 28.1981C85.178 27.8503 85.2544 27.5074 85.3834 27.1815L85.4437 27.0294C85.9277 25.8068 87.1367 25 88.485 25ZM86.797 27.5351C87.0656 26.8565 87.7367 26.4088 88.485 26.4088C89.0455 26.4088 89.5 26.8503 89.5 27.3949V43.3141C89.5 43.7032 89.1754 44.0185 88.775 44.0185H87.1126C86.9767 44.0185 86.8463 43.9661 86.7501 43.8726C86.654 43.7792 86.6 43.6525 86.6 43.5205V28.4032C86.6 28.1584 86.6463 27.9157 86.7368 27.6872L86.797 27.5351ZM90.95 27.8176C90.95 27.0395 91.5991 26.4088 92.4 26.4088C93.2008 26.4088 93.8499 27.0395 93.8499 27.8176V43.4476C93.8499 43.789 93.5466 44.0559 93.1969 44.022L93.161 44.0185H91.675C91.2745 44.0185 90.95 43.7032 90.95 43.3141V27.8176Z" fill="#FFCA0F"/>
<path d="M90.384 50.4427C92.3856 50.4816 93.9757 52.0898 93.9356 54.0345C93.9016 55.6815 92.7084 57.0434 91.1268 57.3966C90.7365 57.4838 90.4929 57.8618 90.5826 58.2409C90.6723 58.62 91.0613 58.8567 91.4516 58.7696C93.6657 58.2751 95.3376 56.3709 95.3853 54.0627C95.4414 51.3401 93.2153 49.0887 90.413 49.0342C87.6108 48.9796 85.2935 51.1424 85.2373 53.8651C85.2105 55.1631 85.5754 56.3955 86.3348 57.3246C87.1054 58.2675 88.2504 58.8555 89.6659 58.883C90.0663 58.8908 90.3973 58.5819 90.4053 58.1929C90.4133 57.804 90.0953 57.4823 89.695 57.4745C88.7086 57.4553 87.9704 57.0604 87.4703 56.4485C86.959 55.823 86.6657 54.9289 86.687 53.8933C86.7272 51.9486 88.3823 50.4037 90.384 50.4427Z" fill="#FFCA0F"/>
<path d="M63.0709 21.6789C63.6216 23.1271 62.5023 24.7269 60.7325 24.7269H5.42232C3.65255 24.7269 2.53327 23.1271 3.08398 21.6789C7.68129 9.5887 19.3776 1 33.0774 1C46.7772 1 58.4735 9.5887 63.0709 21.6789ZM3.76804 51.6468C3.18788 51.0223 3.19692 50.3699 3.50135 49.8454C3.82976 49.2795 4.55422 48.7976 5.52287 48.8017L60.7477 49.0364C61.7163 49.0405 62.4366 49.5285 62.7602 50.0972C63.0602 50.6243 63.0637 51.2768 62.4783 51.8963C57.0517 57.6384 46.0025 61.6749 33.0813 61.62C20.16 61.5651 9.14556 57.4348 3.76804 51.6468ZM62.4796 30.4022C63.9571 30.4022 65.1548 31.5999 65.1548 33.0774V36.7527C65.1548 38.2302 63.9571 39.428 62.4796 39.428H3.67527C2.19776 39.428 1 38.2302 1 36.7527V33.0774C1 31.5999 2.19776 30.4022 3.67527 30.4022H33.0774H62.4796Z" stroke="#FFCA0F" stroke-width="2"/>
</svg>
